<?xml version="1.0" encoding="UTF-8"?>
<svg id="Layer_2" data-name="Layer 2" xmlns="http://www.w3.org/2000/svg" viewBox="0 0 99.04 58.38">
  <defs>
    <style>
      .cls-1 {
        fill: #847769;
      }

      .cls-1, .cls-2 {
        stroke: #f7f5f3;
        stroke-miterlimit: 10;
        stroke-width: .5px;
      }

      .cls-2 {
        fill: none;
      }
    </style>
  </defs>
  <g id="Layer_1-2" data-name="Layer 1">
    <g>
      <path class="cls-2" d="m26.31,8.11c.32-.93.94-2.34,2.12-3.7C31.93.35,37.27.27,38.79.25c1.24-.02,5.54-.02,9.58,3.03,2.38,1.8,3.69,3.91,4.35,5.16"/>
      <path class="cls-2" d="m26.31,8.11c-.08,1.22.35,2.3,1.73,3.85,4.64,5.18,6.89,5.29,8.33,5.95,1.18.54,5.29,2.35,10.44.5,3.03-1.09,5.17-2.99,6.33-4.18"/>
      <path class="cls-2" d="m52.72,8.44c1.05-2.02,2.37-3.3,3.27-4.04,2.61-2.13,5.54-2.68,11.39-3.78,2.42-.45,3.58-.52,3.86-.09.27.42-.39,1.12-1.68,2.49-2.96,3.12-4.45,4.68-4.95,5.07-1.94,1.47-3.63,2.76-6.34,3.26-1.25.23-2.33.22-3.07.17"/>
      <path class="cls-2" d="m53.14,14.23c1.02,1.73,2.31,2.83,3.19,3.46,2.55,1.83,5.41,2.3,11.13,3.23,2.36.39,3.5.45,3.77.07.26-.36-.38-.96-1.65-2.13-2.9-2.67-4.35-4.01-4.84-4.34-1.89-1.26-3.55-2.37-6.19-2.79-1.22-.2-2.27-.19-3-.15"/>
      <path class="cls-2" d="m35.87,10.32c.2.73.6,1.76,1.42,2.67.42.47,1.56,1.74,3.16,1.68.37-.01,1.47-.05,2.06-.99.33-.53.44-1.25.26-1.86-.26-.91-1.06-1.33-1.95-1.8-.64-.33-1.2-.5-1.58-.58"/>
      <path class="cls-2" d="m29.23,6.26c.06-.09.38-.56.95-.64.53-.07,1.06.22,1.37.75"/>
      <path class="cls-2" d="m32.35,10.27c-.19.37-.46.8-.84,1.22-.91,1-1.94,1.4-2.5,1.56"/>
      <path class="cls-2" d="m53.89,8.46c.7-.67,1.75-1.58,3.13-2.45,1.71-1.07,3.14-1.59,4.81-2.18,1.2-.42,2.8-.92,4.75-1.32"/>
      <path class="cls-2" d="m54.85,8.86c1.48-.54,3.02-1.15,4.63-1.85,1.71-.75,3.32-1.53,4.81-2.32"/>
      <path class="cls-2" d="m55.69,9.99c1.3-.06,3.05-.32,4.99-1.13.46-.19,2.27-.97,4.27-2.65,1.14-.96,1.99-1.91,2.58-2.65"/>
      <path class="cls-2" d="m53.29,13.23c.34.34.8.81,1.38,1.32.44.39,1.84,1.64,3.37,2.58,1.7,1.05,3.09,1.44,5.53,2.12,1.24.35,2.96.76,5.05,1.06"/>
      <path class="cls-2" d="m54.55,12.96c1.14.82,2.42,1.65,3.85,2.45,2.39,1.33,4.64,2.26,6.61,2.91"/>
      <path class="cls-2" d="m56.35,12.77c1.46.42,2.66.88,3.55,1.26,2.51,1.06,4.36,2.22,5.65,3.04.91.57,1.64,1.09,2.16,1.46"/>
      <path class="cls-2" d="m37.97,11.24c.32.61.84,1.41,1.68,2.12.29.24.58.44.84.6"/>
      <path class="cls-2" d="m38.93,10.65c.46.48,1.17,1.1,2.15,1.52.34.14.66.24.96.31"/>
    </g>
    <g>
      <path class="cls-2" d="m76.88,9.31c.16-.47.46-1.18,1.03-1.87,1.71-2.05,4.31-2.09,5.05-2.1.61,0,2.7,0,4.67,1.53,1.16.91,1.8,1.97,2.12,2.61"/>
      <path class="cls-2" d="m76.88,9.31c-.04.62.17,1.16.84,1.94,2.26,2.61,3.36,2.67,4.06,3,.58.27,2.58,1.18,5.08.25,1.48-.55,2.52-1.51,3.08-2.11"/>
      <path class="cls-2" d="m89.74,9.48c.51-1.02,1.15-1.67,1.59-2.04,1.27-1.08,2.7-1.35,5.55-1.91,1.18-.23,1.75-.26,1.88-.04.13.21-.19.57-.82,1.26-1.44,1.58-2.17,2.36-2.41,2.56-.94.74-1.77,1.39-3.09,1.65-.61.12-1.13.11-1.5.09"/>
      <path class="cls-2" d="m89.95,12.41c.5.87,1.13,1.43,1.56,1.74,1.24.92,2.64,1.16,5.42,1.63,1.15.2,1.71.23,1.84.04.13-.18-.18-.49-.8-1.08-1.41-1.35-2.12-2.02-2.36-2.19-.92-.64-1.73-1.19-3.02-1.41-.59-.1-1.11-.1-1.46-.07"/>
      <path class="cls-2" d="m81.53,10.43c.1.37.29.89.69,1.35.21.24.76.88,1.54.85.18,0,.72-.03,1-.5.16-.27.21-.63.13-.94-.13-.46-.51-.67-.95-.91-.31-.17-.59-.25-.77-.29"/>
      <path class="cls-2" d="m78.29,8.38s.18-.28.46-.32c.26-.04.52.11.67.38"/>
      <path class="cls-2" d="m79.81,10.4c-.09.18-.22.4-.41.62-.44.51-.94.71-1.22.79"/>
      <path class="cls-2" d="m90.31,9.49c.34-.34.85-.8,1.52-1.24.83-.54,1.53-.8,2.34-1.1.58-.21,1.37-.47,2.31-.67"/>
      <path class="cls-2" d="m90.78,9.69c.72-.27,1.47-.58,2.25-.94.84-.38,1.62-.77,2.34-1.17"/>
      <path class="cls-2" d="m91.19,10.26c.63-.03,1.49-.16,2.43-.57.23-.1,1.1-.49,2.08-1.34.56-.48.97-.96,1.26-1.34"/>
      <path class="cls-2" d="m90.02,11.9c.16.17.39.41.67.67.21.2.9.83,1.64,1.3.83.53,1.5.73,2.69,1.07.61.17,1.44.38,2.46.53"/>
      <path class="cls-2" d="m90.63,11.77c.55.41,1.18.83,1.87,1.24,1.16.67,2.26,1.14,3.22,1.47"/>
      <path class="cls-2" d="m91.51,11.66c.71.21,1.3.45,1.73.63,1.22.54,2.12,1.12,2.75,1.54.44.29.8.55,1.05.74"/>
      <path class="cls-2" d="m82.55,10.9c.16.31.41.71.82,1.07.14.12.28.22.41.3"/>
      <path class="cls-2" d="m83.02,10.59c.22.24.57.56,1.05.77.17.07.32.12.47.16"/>
    </g>
    <g>
      <path class="cls-2" d="m48,31.59c.22-.68.64-1.7,1.45-2.69,2.39-2.94,6.03-3,7.07-3.01.85-.01,3.78-.01,6.54,2.2,1.62,1.3,2.52,2.83,2.97,3.75"/>
      <path class="cls-2" d="m48,31.59c-.06.89.24,1.67,1.18,2.79,3.16,3.76,4.7,3.84,5.69,4.32.81.39,3.61,1.7,7.12.36,2.07-.79,3.53-2.17,4.32-3.03"/>
      <path class="cls-2" d="m66.03,31.83c.71-1.47,1.62-2.39,2.23-2.93,1.78-1.55,3.78-1.94,7.77-2.74,1.65-.33,2.44-.38,2.64-.06.18.3-.26.82-1.15,1.81-2.02,2.26-3.03,3.4-3.38,3.67-1.32,1.07-2.48,2-4.33,2.37-.85.17-1.59.16-2.09.12"/>
      <path class="cls-2" d="m66.31,36.03c.7,1.26,1.58,2.05,2.18,2.51,1.74,1.32,3.69,1.66,7.6,2.35,1.61.28,2.39.32,2.58.05.18-.26-.26-.7-1.12-1.55-1.98-1.94-2.97-2.91-3.3-3.15-1.29-.91-2.43-1.72-4.23-2.03-.83-.14-1.55-.14-2.05-.11"/>
      <path class="cls-2" d="m54.52,33.19c.14.53.41,1.27.97,1.94.29.34,1.07,1.26,2.16,1.22.25,0,1-.04,1.4-.72.23-.39.3-.9.18-1.35-.18-.66-.72-.96-1.33-1.31-.43-.24-.82-.36-1.08-.42"/>
      <path class="cls-2" d="m49.99,30.25c.04-.06.26-.41.65-.46.36-.05.73.16.94.55"/>
      <path class="cls-2" d="m52.12,33.15c-.13.27-.31.58-.58.88-.62.73-1.32,1.02-1.71,1.13"/>
      <path class="cls-2" d="m66.82,31.84c.48-.49,1.19-1.15,2.13-1.78,1.17-.78,2.14-1.15,3.28-1.58.82-.31,1.91-.67,3.24-.96"/>
      <path class="cls-2" d="m67.48,32.13c1.01-.39,2.06-.83,3.16-1.34,1.17-.55,2.26-1.11,3.28-1.68"/>
      <path class="cls-2" d="m68.05,32.95c.89-.05,2.08-.23,3.4-.82.32-.14,1.55-.7,2.91-1.92.78-.69,1.36-1.38,1.76-1.92"/>
      <path class="cls-2" d="m66.41,35.3c.23.25.55.58.94.96.3.28,1.25,1.19,2.3,1.87,1.16.76,2.11,1.04,3.77,1.54.85.25,2.02.55,3.45.77"/>
      <path class="cls-2" d="m67.27,35.11c.78.59,1.65,1.2,2.63,1.78,1.63.97,3.17,1.64,4.51,2.11"/>
      <path class="cls-2" d="m68.5,34.97c1,.31,1.82.64,2.42.91,1.71.77,2.97,1.61,3.86,2.21.62.42,1.12.79,1.48,1.06"/>
      <path class="cls-2" d="m55.95,33.86c.22.44.58,1.03,1.15,1.54.2.18.39.32.57.43"/>
      <path class="cls-2" d="m56.61,33.43c.31.35.8.8,1.47,1.1.23.11.45.18.65.23"/>
    </g>
    <g>
      <path class="cls-2" d="m.26,25.01c.22-.68.64-1.7,1.45-2.69,2.39-2.94,6.03-3,7.07-3.01.85-.01,3.78-.01,6.54,2.2,1.62,1.3,2.52,2.83,2.97,3.75"/>
      <path class="cls-2" d="m.26,25.01c-.06.89.24,1.67,1.18,2.79,3.16,3.76,4.7,3.84,5.69,4.32.81.39,3.61,1.7,7.12.36,2.07-.79,3.53-2.17,4.32-3.03"/>
      <path class="cls-2" d="m18.28,25.25c.71-1.47,1.62-2.39,2.23-2.93,1.78-1.55,3.78-1.94,7.77-2.74,1.65-.33,2.44-.38,2.64-.06.18.3-.26.82-1.15,1.81-2.02,2.26-3.03,3.4-3.38,3.67-1.32,1.07-2.48,2-4.33,2.37-.85.17-1.59.16-2.09.12"/>
      <path class="cls-2" d="m18.57,29.45c.7,1.26,1.58,2.05,2.18,2.51,1.74,1.32,3.69,1.66,7.6,2.35,1.61.28,2.39.32,2.58.05.18-.26-.26-.7-1.12-1.55-1.98-1.94-2.97-2.91-3.3-3.15-1.29-.91-2.43-1.72-4.23-2.03-.83-.14-1.55-.14-2.05-.11"/>
      <path class="cls-2" d="m6.78,26.62c.14.53.41,1.27.97,1.94.29.34,1.07,1.26,2.16,1.22.25,0,1-.04,1.4-.72.23-.39.3-.9.18-1.35-.18-.66-.72-.96-1.33-1.31-.43-.24-.82-.36-1.08-.42"/>
      <path class="cls-2" d="m2.24,23.67c.04-.06.26-.41.65-.46.36-.05.73.16.94.55"/>
      <path class="cls-2" d="m4.37,26.58c-.13.27-.31.58-.58.88-.62.73-1.32,1.02-1.71,1.13"/>
      <path class="cls-2" d="m19.08,25.27c.48-.49,1.19-1.15,2.13-1.78,1.17-.78,2.14-1.15,3.28-1.58.82-.31,1.91-.67,3.24-.96"/>
      <path class="cls-2" d="m19.73,25.56c1.01-.39,2.06-.83,3.16-1.34,1.17-.55,2.26-1.11,3.28-1.68"/>
      <path class="cls-2" d="m20.31,26.37c.89-.05,2.08-.23,3.4-.82.32-.14,1.55-.7,2.91-1.92.78-.69,1.36-1.38,1.76-1.92"/>
      <path class="cls-2" d="m18.67,28.72c.23.25.55.58.94.96.3.28,1.25,1.19,2.3,1.87,1.16.76,2.11,1.04,3.77,1.54.85.25,2.02.55,3.45.77"/>
      <path class="cls-2" d="m19.53,28.53c.78.59,1.65,1.2,2.63,1.78,1.63.97,3.17,1.64,4.51,2.11"/>
      <path class="cls-2" d="m20.76,28.39c1,.31,1.82.64,2.42.91,1.71.77,2.97,1.61,3.86,2.21.62.42,1.12.79,1.48,1.06"/>
      <path class="cls-2" d="m8.21,27.28c.22.44.58,1.03,1.15,1.54.2.18.39.32.57.43"/>
      <path class="cls-2" d="m8.87,26.85c.31.35.8.8,1.47,1.1.23.11.45.18.65.23"/>
    </g>
    <polygon class="cls-1" points="60.8 32.29 70.65 56.18 76.77 50.67 84.37 58.03 87.74 54.91 79.88 47.71 86.7 41.37 60.8 32.29"/>
  </g>
</svg>