<?xml version="1.0" encoding="UTF-8"?>
<svg id="Layer_2" data-name="Layer 2" xmlns="http://www.w3.org/2000/svg" viewBox="0 0 136.64 79.16">
  <defs>
    <style>
      .cls-1 {
        stroke-width: .4px;
      }

      .cls-1, .cls-2, .cls-3 {
        fill: none;
        stroke: #f7f5f3;
        stroke-miterlimit: 10;
      }

      .cls-2 {
        stroke-width: .1px;
      }

      .cls-3 {
        stroke-width: .5px;
      }
    </style>
  </defs>
  <g id="Layer_1-2" data-name="Layer 1">
    <g>
      <path class="cls-1" d="m109.74,24.82c.67-1.05,1.78-1.42,2.58-.99,1.03.55,1.19,2.22.86,3.22-.37,1.13-1.26,1.11-1.94,2.23-.43.71-.79,1.89-.43,3.97"/>
      <path class="cls-1" d="m115.36,40.22c.97-.75,2.58-1.01,3.75-.71,1.49.39,1.72,1.58,1.25,2.3-.53.8-1.82.79-2.81,1.59-.62.5-1.15,1.35-.62,2.83"/>
      <path class="cls-1" d="m121.65,25.75c.47-.37,1.25-.5,1.81-.35.72.19.83.78.6,1.13-.26.4-.88.39-1.36.78-.3.25-.56.67-.3,1.4"/>
      <path class="cls-1" d="m110.97,34.14c-.23.1-.36.4-.32.68.04.34.33.62.64.56.3-.07.48-.42.43-.74-.06-.39-.45-.63-.75-.49Z"/>
      <path class="cls-2" d="m117.13,48.05c-.33.07-.52.29-.47.48.06.24.48.44.93.4.43-.05.69-.3.62-.53-.09-.27-.65-.45-1.09-.35Z"/>
      <path class="cls-1" d="m122.27,29.14c-.14.06-.22.25-.2.41.03.2.2.38.4.34.18-.04.3-.26.27-.45-.04-.24-.28-.39-.47-.3Z"/>
      <polygon class="cls-3" points="100.95 53.64 109.69 7.78 136.35 14.22 128.29 58.85 100.95 53.64"/>
      <g>
        <path class="cls-3" d="m113.39,10.8l-.76,4.03"/>
        <polyline class="cls-3" points="113.5 15.06 114.26 11.03 114.77 11.17 114.74 15.29 115.04 15.3 115.77 11.44"/>
        <line class="cls-3" x1="117.46" y1="11.77" x2="116.78" y2="15.8"/>
        <line class="cls-3" x1="116.48" y1="11.63" x2="118.54" y2="12.19"/>
        <line class="cls-3" x1="119.21" y1="12.25" x2="118.46" y2="16.25"/>
        <line class="cls-3" x1="126.36" y1="13.94" x2="125.61" y2="17.94"/>
        <line class="cls-3" x1="120.7" y1="12.77" x2="119.31" y2="12.44"/>
        <line class="cls-3" x1="127.43" y1="14.39" x2="126.36" y2="14.14"/>
        <line class="cls-3" x1="120.36" y1="14.58" x2="118.97" y2="14.25"/>
        <line class="cls-3" x1="127.09" y1="16.2" x2="126.02" y2="15.95"/>
        <line class="cls-3" x1="119.97" y1="16.44" x2="118.58" y2="16.11"/>
        <line class="cls-3" x1="126.71" y1="18.06" x2="125.64" y2="17.81"/>
        <line class="cls-3" x1="120.88" y1="16.73" x2="121.63" y2="12.77"/>
        <path class="cls-3" d="m121.33,12.84c.16.02.39.06.67.14.28.09.43.14.51.27.17.27.07.68-.03.9-.04.1-.13.3-.32.4-.2.11-.44.07-.74.02-.02,0-.03,0-.04,0"/>
        <line class="cls-3" x1="121.43" y1="14.73" x2="122.22" y2="16.98"/>
        <line class="cls-3" x1="123.24" y1="17.25" x2="123.27" y2="13.21"/>
        <line class="cls-3" x1="127.92" y1="18.52" x2="128.13" y2="14.42"/>
        <line class="cls-3" x1="128.8" y1="18.81" x2="129.02" y2="14.71"/>
        <line class="cls-3" x1="123.24" y1="17.25" x2="124.9" y2="13.65"/>
        <line class="cls-3" x1="127.92" y1="18.52" x2="129.39" y2="14.76"/>
        <line class="cls-3" x1="128.8" y1="18.81" x2="130.27" y2="15.05"/>
        <line class="cls-3" x1="124.9" y1="17.51" x2="125.57" y2="13.97"/>
      </g>
      <polyline class="cls-1" points="43.98 54.97 43.98 .2 103.7 1.21 103.3 41.29"/>
      <polygon class="cls-1" points="45.41 2.91 45.41 11.67 102.26 13.17 102.26 2.91 45.41 2.91"/>
      <g>
        <path class="cls-1" d="m60.97,4.83c-.16-.07-1.04-.46-1.77.07-1.11.81-.75,2.94-.71,3.18.05.29.38,2.11,1.42,2.26.6.09,1.2-.42,1.47-.99.2-.41.35-1.09.12-1.34-.15-.17-.37-.05-1,0-.39.03-.72.02-.94,0"/>
        <path class="cls-1" d="m63.74,7.8c.59.65,1.42.7,1.95.21.39-.36.67-1.08.47-1.49-.31-.64-1.93-.75-2.6.35-.4.66-.39,1.63,0,2.33.05.09.56.98,1.42.92.54-.04.9-.44,1-.57"/>
        <path class="cls-1" d="m67.28,6.03c.05.21.11.47.16.77,0,0,.09.49.14,1,.11,1.08.03,2.55,0,2.55-.01,0,.06-1.33.04-3.84,0-.03-.04-.13,0-.24.03-.1.1-.16.18-.21.2-.12.42-.13.61-.12.38.01.58.02.71.12.15.11.22.26.36.64.25.66.38.99.43,1.24.13.6.05.77.18,2.05.02.23.05.42.06.54"/>
        <path class="cls-1" d="m70.35,4.47c.24.52.54,1.29.75,2.27.36,1.75.21,3.2.23,3.2.02,0,.28-1.79-.02-2.72-.02-.05-.06-.19-.02-.31.12-.32.76-.33,1.19-.19.14.05.81.27,1.11,1.06.27.71.16,1.65-.29,2.09-.34.33-.86.37-1.11.34-.09-.01-.39-.06-.81-.06-.04,0-.08,0-.1,0"/>
        <path class="cls-1" d="m74.47,5.91c.36,1.69.45,2.98.47,3.84,0,.17,0,.66,0,.66-.02,0,.14-2.75-.09-3.81,0-.04-.04-.16,0-.28.15-.52,1.12-.5,1.19-.5.25,0,.78.02.92.39.05.13.04.26.02.36"/>
        <path class="cls-1" d="m77.81,5.99c.04,1.03.04,1.86.03,2.41-.01.76-.05,1.21.21,1.65.04.07.38.63.88.62.58-.01.93-.76,1-.91.16-.33.2-.64.21-2.05,0-1.19,0-1.78-.02-1.78-.06,0-.39,1.75.06,3.61.11.45.24.82.35,1.07"/>
        <path class="cls-1" d="m83.57,6.3c-.19-.12-.54-.3-.91-.18-.72.24-.95,1.46-.95,2.14,0,.15-.01,1.73.79,2.02.52.19,1.17-.24,1.36-.8.03-.1.04-.3.05-.71.02-.94-.02-1.62-.03-1.87-.03-.48-.05-.65-.05-.65,0,0,.02,1.5.17,3.87.05.8.1,1.37-.21,1.71-.31.34-.83.28-1.1.25-.27-.03-.58-.06-.71-.34-.1-.22-.03-.48,0-.58"/>
      </g>
      <polyline class="cls-1" points="45.41 54.97 45.41 14.14 60.01 14.25 60.01 54.97"/>
      <polyline class="cls-1" points="63.27 54.97 63.27 14.39 101.36 15.45 101.75 49.41"/>
      <polyline class="cls-1" points="46.34 54.97 46.34 21.39 58.96 21.39 59.28 54.97"/>
      <polygon class="cls-1" points="46.34 15.05 46.34 20.15 58.88 20.15 58.88 15.45 46.34 15.05"/>
      <polyline class="cls-1" points="64.04 54.97 64.04 15.45 100.49 16.47 100.95 51.68"/>
      <path class="cls-1" d="m47.98,34.31s-.26-.15-.49,0c-.25.16-.28.51-.29.61,0,.05-.05.64.29.82.21.12.47.01.62-.16.22-.25.18-.6.18-.66,0-.08-.04-.45-.31-.61Z"/>
      <polyline class="cls-2" points="50.85 29.6 52.73 25.82 54.34 29.6"/>
      <rect class="cls-3" x="49.78" y="29.6" width="6.05" height="3.53"/>
      <path class="cls-3" d="m48.69,73.33c-.47-.53-.7-.79-.89-.88-.48-.24-1.28-.31-1.75.25-.6.7-.34,1.98.04,2.69.6,1.13,1.72,1.21,1.9,1.22.29.01.94.05,1.39-.52.09-.11.44-.58.4-1.18-.02-.21-.09-.45-1.09-1.58Z"/>
      <g>
        <path class="cls-3" d="m31.56,57.1c1.36,2.05,2.64,3.89,3.83,6.09,2.75,5.05,4.95,6.4,7.41,10.56.6,1.02,1.33,1.94,1.93,2.96.52.88.79,1.41,1.4,1.8.71.46,1.41.42,2.04.39,1.05-.06,2.28-.13,3.01-1.29.72-1.15.46-2.57.43-2.7-.23-1.13-.91-1.78-1.61-2.45-4.6-4.39-2.66-2.79-3.76-3.61-2.86-2.13-4.76-4.57-6.23-6.31-.74-.88-.78-.99-4.18-5.18-.45-.55-.51-1.17-.99-1.68-.19-.2-.47-.49-.69-.99-.1-.23-.27-.62-.24-1.11.02-.42.17-.74.34-1.03.39-.68.52-1.14,1.51-1.99.75-.65.99-.8,1.48-1.32.66-.7.78-1.03.83-1.16.3-.86.04-1.73-.07-2.1-.29-.97-.59-.82-1.55-2.48-.46-.8-.64-1.27-1.03-1.32-.4-.05-.39.35-.5.5-2.06,2.59-14.27,14.53-15.83,14.97-.07.02-.44.11-.55.43-.09.26.04.56.24.94.55,1.08.98,1.7.98,1.7.58.82.87,1.22,1.18,1.42.46.28.86.3,1.38.33,1.15.06,2-.35,2.17-.43.41-.2.85-.59,1.73-1.37.41-.36,1-.89,1.73-1.65.58-.61,1.33-1.44,1.58-1.79.01-.02.1-.14.23-.29.16-.19.24-.28.37-.36.25-.15.48-.13.55-.12.22.03.38.13.48.2.25.17.39.39.42.44Z"/>
        <path class="cls-3" d="m19.08,57.64c-.97-1.66-.53-1.35-2.06-3.83-2.14-3.48-3.21-5.21-4.58-7.2-5.68-8.25-10.12-13.39-10.12-13.39-.77-.97-1.79-2.24-2.02-4.19-.39-3.18,1.6-5.87,2.17-6.65,2.73-3.71,6.99-4.16,8-4.27,4.33-.46,7.59,1.87,9.11,2.99,2.04,1.51,3.53,3.61,6.5,7.82,1.77,2.52,3.19,4.83,6.01,9.47,1.17,1.92,2.13,3.53,2.78,4.62"/>
        <path class="cls-3" d="m5.99,37.49c.78-.63,1.97-1.45,3.53-1.98,3.9-1.34,6.56.35,10.04.53,2.31.12,5.18-.14,9.21-3.04"/>
      </g>
    </g>
  </g>
</svg>