<?xml version="1.0" encoding="UTF-8"?>
<svg id="Layer_2" data-name="Layer 2" xmlns="http://www.w3.org/2000/svg" viewBox="0 0 87.46 75.55">
  <defs>
    <style>
      .cls-1 {
        stroke-width: .9px;
      }

      .cls-1, .cls-2, .cls-3, .cls-4, .cls-5, .cls-6, .cls-7, .cls-8 {
        stroke: #f7f5f3;
        stroke-miterlimit: 10;
      }

      .cls-1, .cls-3, .cls-4, .cls-5, .cls-7, .cls-8 {
        fill: none;
      }

      .cls-2, .cls-6 {
        fill: #f7f5f3;
      }

      .cls-2, .cls-8 {
        stroke-width: .5px;
      }

      .cls-3 {
        stroke-width: .2px;
      }

      .cls-5 {
        stroke-width: .6px;
      }

      .cls-6 {
        stroke-width: .1px;
      }

      .cls-7 {
        stroke-width: .3px;
      }
    </style>
  </defs>
  <g id="Layer_1-2" data-name="Layer 1">
    <path class="cls-4" d="m57.63,50.99c-4.31,1.62-6.8,6.26-6.13,10.54.81,5.2,6.28,9.69,12.27,8.62,5.67-1.02,9.13-6.55,8.18-11.49-1.16-5.99-8.55-9.82-14.31-7.66Z"/>
    <path class="cls-2" d="m40.25,48.19c-.43.18-.68.71-.62,1.19.08.59.63,1.1,1.24.98.57-.12.92-.74.82-1.3-.12-.68-.86-1.11-1.44-.87Z"/>
    <path class="cls-8" d="m43.13,48.19c-.43.18-.68.71-.62,1.19.08.59.63,1.1,1.24.98.57-.12.92-.74.82-1.3-.12-.68-.86-1.11-1.44-.87Z"/>
    <path class="cls-6" d="m58.31,52.18c-3.59,1.41-5.67,5.47-5.11,9.19.68,4.54,5.24,8.46,10.22,7.52,4.72-.89,7.61-5.72,6.81-10.03-.96-5.23-7.13-8.57-11.92-6.69Z"/>
    <g>
      <path class="cls-4" d="m.5,73.69c.06-7.43.2-13.42.31-17.28.51-17.69,1.38-28.01.93-36.66-.05-.95-.34-6.16-.62-13.31-.02-.59-.06-1.26-.1-2.61-.06-1.86-.04-1.96,0-2.05.22-.54,1.6-1.87,13.79-.98"/>
      <path class="cls-4" d="m14.23.85c-.05,7.39-.18,13.35-.28,17.2-.46,17.6-1.27,27.87-.85,36.49.05.95.31,6.13.57,13.25.02.59.05,1.26.09,2.59.05,1.85.03,1.95,0,2.04-.21.53-1.47,1.86-12.66.98"/>
      <path class="cls-4" d="m.58,63.96c4.31.12,8.62.24,12.93.36"/>
      <path class="cls-4" d="m1.59,12.36c4.31.12,8.62.24,12.93.36"/>
      <path class="cls-4" d="m.08,61.06c4.72.12,9.43.24,14.15.36"/>
      <path class="cls-4" d="m1.09,9.61c4.35.07,8.69.14,13.04.22"/>
    </g>
    <g>
      <path class="cls-4" d="m24.5,14.14c-.11,6.06-.26,10.95-.37,14.11-.51,14.44-1.18,22.85-.97,29.92.02.78.16,5.03.28,10.87,0,.48.02,1.03.04,2.13.02,1.52,0,1.6-.02,1.67-.15.44-1.07,1.51-9.08.69"/>
      <path class="cls-4" d="m14.77,73.5c.11-6.03.25-10.9.36-14.04.48-14.37,1.11-22.74.92-29.78-.02-.77-.14-5.01-.24-10.82,0-.48-.02-1.03-.03-2.12-.02-1.51,0-1.59.02-1.67.14-.43.98-1.51,8.33-.7"/>
      <path class="cls-4" d="m24.35,22.09c-2.83-.13-5.66-.27-8.49-.4"/>
      <path class="cls-4" d="m23.18,64.2c-2.83-.13-5.66-.27-8.49-.4"/>
      <path class="cls-4" d="m24.65,24.46c-3.1-.14-6.2-.27-9.29-.41"/>
      <path class="cls-4" d="m23.49,66.45c-2.86-.09-5.71-.19-8.57-.28"/>
    </g>
    <path class="cls-4" d="m9.78,48.62c-.54-.38-1.37-.95-2.41-1.56-2.05-1.19-3.27-1.58-3.23-2.05.03-.33.68-.48,1.76-.76,1.61-.41,2.99-.79,4.1-1.11"/>
    <path class="cls-4" d="m6.76,46.88c.09-1.03.17-2.06.26-3.09"/>
    <path class="cls-4" d="m10.14,41.89c-1.06-.12-2.21-.19-3.45-.16-.93.02-1.82.09-2.66.19"/>
    <path class="cls-4" d="m4.18,43.11c-.07-.15-.55-1.27-.21-2.53.06-.22.23-.76.61-1.18.47-.5,1.27-.86,1.73-.33.44.52.37,1.66.34,2.1,0,.15-.02.27-.03.35"/>
    <path class="cls-4" d="m6.76,41.5c.06-.21.16-.52.32-.84.09-.18.32-.59.8-1.04.89-.84,2.11-1.31,2.39-1.42"/>
    <path class="cls-4" d="m10.26,36.93c-.66-.01-1.34,0-2.02.01-1.41.04-2.77.14-4.07.28"/>
    <path class="cls-4" d="m6.72,36.77c-.05-.27-.12-.55-.22-.83-.56-1.49-1.73-1.89-2.09-2"/>
    <path class="cls-4" d="m6.86,36.77c.15-.32.37-.76.69-1.24.29-.43.83-1.25,1.71-1.83.28-.19.71-.43,1.26-.56"/>
    <g>
      <path class="cls-5" d="m22.27,42.01c-.31,0-.63.03-.96.06-.67.07-3.63.22-4.25.37"/>
      <path class="cls-5" d="m20.2,41.99c-.02-.2-.06-.41-.11-.62-.27-1.12-1.23-1.38-1.4-1.45"/>
      <path class="cls-5" d="m20.26,41.98c.07-.25.18-.59.32-.96.13-.34.39-.69.81-1.16.13-.15.55-.5.8-.61"/>
      <path class="cls-5" d="m16.33,54.11c.75-.12,1.55-.21,2.4-.26,1.15-.06,2.22-.04,3.19.05"/>
      <path class="cls-5" d="m16.98,56.02c-.18-.25-.48-.73-.65-1.45-.12-.5-.39-1.61.07-2.37.37-.61,1.02-.68,1.44-.55.09.03.74.24,1.04,1.1.13.38.15.73.14.94"/>
      <path class="cls-5" d="m19.17,53.61c0-.19.03-.47.13-.79.19-.63.53-.96.65-1.07.16-.15.75-.72,1.38-.43.08.04.4.19.6.62,0,0,.24.53.14,1.47,0,.03-.03.26-.07.63,0,.02,0,.08-.01.1"/>
      <path class="cls-5" d="m19.34,48.73c.01.11.09.76.42,1.22.45.62,1.28.81,1.85.29.08-.07.43-.39.52-.97.13-.81-.34-1.54-.71-1.86-.13-.11-.6-.49-1.17-.28-.37.13-.86.53-.94,1.14-.02.16,0,.28.02.46Z"/>
      <path class="cls-5" d="m22.02,43.71c-.05-.09-.36-.58-.82-.74-.62-.22-1.41.21-1.72,1.06-.04.11-.23.63-.1,1.19.19.78.86,1.07,1.3,1.09.15,0,.7,0,1.12-.58.27-.37.55-1.06.4-1.63-.04-.15-.1-.24-.18-.38Z"/>
      <path class="cls-5" d="m18.88,36.17c-.07.06-.48.43-.56,1.14-.06.55.09,1.3.56,1.57.42.24.91-.03,1.12-.43.14-.27.07-.41.22-1.23.12-.63.18-.95.35-1.16.27-.33.75-.42,1.1-.13.33.28.41.78.45,1.13.03.22.15,1.26-.26,1.6-.17.14-.36.11-.48.08"/>
    </g>
    <path class="cls-1" d="m45.99,45.59c-6.21-.02-4.39.1-4.39.1-.49-.03-1-.08-1.66.1-.19.05-1.58.45-2.44,1.76-.52.79-.61,1.57-.68,2.44-.25,3.12,0,5.24,0,7.91,0,.45-.03,1.34-.1,3.12-.1,2.67.13,5.36-.2,8-.03.27-.13,1.03.1,1.95.09.36.29,1.12.88,1.76.53.57,1.17.82,2.15,1.07,2.01.51,3.75.57,5.56.59,1.56.02,2.34.03,3.12,0,1.98-.07,5-.01,11.03.1,8.81.16,13.21.24,15.13.49,2.84.37,5.74-.27,8.59,0,.29.03,1.21.12,2.05-.39.69-.42,1.04-1.08,1.17-1.37.28-.62.21-1,.29-2.34.06-.97.1-.92.2-2.05.13-1.57.17-3.32.2-6.93.02-2.87.02-4.3,0-5.37-.04-1.69-.06-3.38-.1-5.08-.01-.63-.03-1.05,0-1.66.02-.36.02-.72.04-1.08.04-.54.09-.7,0-.91-.15-.35-.53-.54-.87-.65-2.36-.79-4.15-.43-4.15-.43-3.59.71-11.2-1.06-35.93-1.13Z"/>
    <path class="cls-1" d="m76.09,48.66c-1.38,0-.98.02-.98.02-.11,0-.22-.01-.37.02-.04,0-.35.07-.54.29-.12.13-.14.26-.15.4-.06.51,0,.85,0,1.28,0,.07,0,.22-.02.51-.02.43.03.87-.04,1.3,0,.04-.03.17.02.32.02.06.06.18.2.29.12.09.26.13.48.17.45.08.83.09,1.24.1.35,0,.52,0,.69,0,.44-.01,1.11,0,2.45.02,1.96.03,2.94.04,3.36.08.63.06,1.28-.04,1.91,0,.06,0,.27.02.46-.06.15-.07.23-.17.26-.22.06-.1.05-.16.07-.38.01-.16.02-.15.04-.33.03-.26.04-.54.04-1.13,0-.47,0-.7,0-.87,0-.27-.01-.55-.02-.82,0-.1,0-.17,0-.27,0-.06,0-.12,0-.18,0-.09.02-.11,0-.15-.03-.06-.12-.09-.19-.11-.52-.13-.92-.07-.92-.07-.8.12-2.49-.17-7.98-.18Z"/>
    <path class="cls-3" d="m41.55,64.46c-1.26,0-.89.02-.89.02-.1,0-.2-.02-.34.02-.04.01-.32.11-.49.42-.1.19-.12.37-.14.58-.05.74,0,1.24,0,1.87,0,.11,0,.32-.02.74-.02.63.03,1.27-.04,1.89,0,.06-.03.24.02.46.02.08.06.27.18.42.11.13.24.19.43.25.41.12.76.13,1.13.14.32,0,.47,0,.63,0,.4-.02,1.01,0,2.23.02,1.78.04,2.68.06,3.06.12.58.09,1.16-.06,1.74,0,.06,0,.24.03.42-.09.14-.1.21-.25.24-.32.06-.15.04-.24.06-.55.01-.23.02-.22.04-.48.03-.37.04-.78.04-1.64,0-.68,0-1.02,0-1.27,0-.4-.01-.8-.02-1.2,0-.15,0-.25,0-.39,0-.09,0-.17,0-.26,0-.13.02-.17,0-.21-.03-.08-.11-.13-.18-.15-.48-.19-.84-.1-.84-.1-.73.17-2.27-.25-7.28-.27Z"/>
    <path class="cls-1" d="m80.65,49.25c-.69,0-.49.01-.49.01-.05,0-.11-.01-.18.01-.02,0-.18.06-.27.25-.06.11-.07.22-.08.35-.03.44,0,.75,0,1.13,0,.06,0,.19-.01.44-.01.38.01.76-.02,1.14,0,.04-.01.15.01.28,0,.05.03.16.1.25.06.08.13.12.24.15.22.07.42.08.62.08.17,0,.26,0,.35,0,.22,0,.56,0,1.23.01.98.02,1.47.03,1.68.07.32.05.64-.04.95,0,.03,0,.13.02.23-.06.08-.06.12-.15.13-.19.03-.09.02-.14.03-.33,0-.14.01-.13.02-.29.01-.22.02-.47.02-.99,0-.41,0-.61,0-.76,0-.24,0-.48-.01-.72,0-.09,0-.15,0-.24,0-.05,0-.1,0-.15,0-.08,0-.1,0-.13-.02-.05-.06-.08-.1-.09-.26-.11-.46-.06-.46-.06-.4.1-1.24-.15-3.99-.16Z"/>
    <path class="cls-1" d="m41.83,45.65c-.18-.47-.71-2,0-2.78.27-.3.59-.34,2.88-.4,4.6-.11,2.84.07,3.97,0,1.11-.07,1.68-.18,1.98.2.08.1.18.28.2,1.79,0,.41,0,.75,0,.99"/>
    <path class="cls-7" d="m75.99,46.73c-.09-.23-.35-1,0-1.39.14-.15.3-.17,1.44-.2,2.3-.06,1.42.03,1.98,0,.56-.03.84-.09.99.1.04.05.09.14.1.89,0,.21,0,.38,0,.5"/>
  </g>
</svg>