<?xml version="1.0" encoding="UTF-8"?>
<svg id="Layer_2" data-name="Layer 2" xmlns="http://www.w3.org/2000/svg" viewBox="0 0 88.71 54.5">
  <defs>
    <style>
      .cls-1 {
        stroke-width: .4px;
      }

      .cls-1, .cls-2, .cls-3, .cls-4 {
        fill: none;
        stroke: #f7f5f3;
        stroke-miterlimit: 10;
      }

      .cls-2 {
        stroke-width: .1px;
      }

      .cls-4 {
        stroke-width: .6px;
      }
    </style>
  </defs>
  <g id="Layer_1-2" data-name="Layer 1">
    <path class="cls-3" d="m45.05.85c-9.34-.66-18.83-.17-28.46-.25-3.31-.03-7.62,0-7.62,0-1.5,0-1.49-.03-1.63,0-.65.17-1.1.94-1.21,1.12-.42.74-.62,1.62-.75,2.24-.33,1.53-.36,2.92-.38,3.48-.11,5.37-.05,9.73-.05,9.73,0,.71,0,2.62,0,6.43-.01,8.32-.13,11.03-.13,17.61v9.49"/>
    <path class="cls-4" d="m44.5,3.34c-8.71-.62-17.56-.16-26.55-.24-3.09-.03-7.11,0-7.11,0-1.4,0-1.39-.03-1.52,0-.6.16-1.03.89-1.12,1.06-.4.7-.58,1.53-.7,2.11-.31,1.45-.34,2.75-.35,3.28-.11,5.06-.05,9.17-.05,9.17,0,.67,0,2.47,0,6.06-.01,7.85-.12,10.4-.12,16.61v8.95"/>
    <path class="cls-3" d="m45.05.85c9.11.14,17.8-.17,26.92-.25,3.13-.03,7.21,0,7.21,0,1.42,0,1.41-.03,1.54,0,.61.17,1.04.94,1.14,1.12.4.74.58,1.62.71,2.24.31,1.53.34,2.92.35,3.48.11,5.37.05,9.73.05,9.73,0,.71,0,2.62,0,6.43.01,8.32.12,11.03.12,17.61v9.49"/>
    <path class="cls-4" d="m44.5,3.34c8.49.13,16.61-.16,25.11-.24,2.92-.03,6.73,0,6.73,0,1.32,0,1.31-.03,1.44,0,.57.16.97.89,1.06,1.06.37.7.54,1.53.66,2.11.29,1.45.32,2.75.33,3.28.1,5.06.05,9.17.05,9.17,0,.67,0,2.47,0,6.06.01,7.85.11,10.4.11,16.61v8.95"/>
    <polygon class="cls-1" points="9.86 48.91 9.86 37.94 9.86 10.29 9.86 5.83 38.82 5.83 38.82 48.78 9.86 48.91"/>
    <polygon class="cls-1" points="32.34 50.7 32.34 48.81 38.82 48.78 39.05 12.08 39.05 7.62 68.01 7.62 68.01 50.7 32.34 50.7"/>
    <line class="cls-1" x1="9.75" y1="8.52" x2="38.94" y2="8.3"/>
    <line class="cls-1" x1="39.05" y1="10.34" x2="68.01" y2="10.62"/>
    <path class="cls-1" d="m71.29,10.81c-.02.16-.03.38,0,.68v1.61c-.03.12-.08.38,0,.68.03.11.1.36.31.52.22.17.47.16.68.16.49,0,.97.05,1.46.05.69,0,1.05.01,1.56.05.22.02.52.05.94,0,.37-.04.62-.07.78-.26.14-.16.13-.34.16-.78.03-.63.09-.94.1-1.14.02-.34.03-.51.03-.73,0-.37-.02-.43,0-.68.03-.31.08-.37.03-.46-.07-.13-.24-.15-.84-.19-.45-.03-.68-.05-.77-.05-.66,0-1,0-1.15.03-.05.01-.25.06-.43-.03-.1-.05-.13-.11-.14-.13-.04-.08-.01-.14,0-.24,0-.03.03-.28-.05-.41-.08-.12-.25-.13-.49-.14-1.07-.05-.96-.04-1.09-.05-.48-.05-.69-.15-.88,0-.1.08-.15.2-.16.22-.05.14-.01.21,0,.55,0,.07,0,.18,0,.32,0,.19-.03.32-.04.41Z"/>
    <g>
      <path class="cls-2" d="m72.58,15.6c0,.08,0,.19,0,.32,0,.74,0,1.11-.01,1.11-.02,0-.19-.51.1-.78.06-.06.1-.06.2-.13.15-.09.35-.25.52-.53"/>
      <path class="cls-2" d="m73.37,17s-.03-.1-.07-.17c-.04-.08-.1-.18-.23-.28-.05-.04-.16-.12-.34-.17-.03,0-.05-.01-.07-.01"/>
      <path class="cls-2" d="m74.65,15.6c-.16,0-.29,0-.38,0-.13,0-.27.02-.4-.01,0,0-.04-.01-.06,0-.05.02-.05.1-.05.13,0,.11-.01.22,0,.33,0,0,.04.29-.02.8,0,.03,0,.07,0,.1,0,.04-.01.05,0,.07.02.03.09.02.1.02.1,0,.4,0,.85,0"/>
      <path class="cls-2" d="m74.62,16.32c-.11,0-.19-.01-.25-.01-.09,0-.14,0-.33,0-.08,0-.14,0-.18,0"/>
      <path class="cls-2" d="m74.92,17.02c.01-.06.03-.15.06-.27.05-.19.07-.23.13-.45.07-.24.11-.43.11-.43s.04-.18.1-.33c.02-.05.03-.05.04-.09,0-.02,0-.04.02-.05.03-.02.08,0,.1,0,.08.03.12.08.14.09.06.07.07.13.1.23.02.08.05.16.07.25.05.22.13.44.19.65.03.11.1.36.13.46"/>
      <path class="cls-2" d="m75.79,16.16c-.06,0-.13,0-.19,0-.13,0-.26,0-.39-.01"/>
    </g>
    <polyline class="cls-2" points="21.23 6.24 21.41 6.81 21.93 8.11 22.25 7.3 22.61 6.24"/>
    <path class="cls-2" d="m24.07,6.61s-.19-.28-.5-.32c-.17-.02-.47,0-.59.21-.11.19-.01.47.15.59.24.18.53,0,.71.2.1.11.11.28.07.4-.07.21-.28.29-.36.32-.04.01-.43.15-.62-.05-.11-.12-.08-.3-.07-.34"/>
    <path class="cls-2" d="m25.1,6.4c-.06-.03-.15-.07-.26-.04-.2.05-.3.27-.35.39-.14.31-.24.89.06,1.18.12.11.36.25.55.12.2-.13.2-.44.2-.46"/>
    <path class="cls-2" d="m49.43,8.52s-.23-.05-.41.09c-.1.09-.19.24-.16.41.05.21.27.29.41.31.05,0,.1,0,.13,0"/>
    <path class="cls-2" d="m49.74,8.46c.01.07.03.17.04.29.02.28,0,.58,0,.58,0,0-.05-.31.08-.4.06-.04.16-.04.22,0,.05.03.06.08.08.14.02.05.04.14.03.26"/>
    <path class="cls-2" d="m50.72,8.85s-.12-.04-.22.02c-.12.07-.15.22-.12.33,0,.02.04.14.13.16.08.02.16-.06.2-.11.05-.08.05-.18.05-.3,0-.03,0-.05,0-.09,0,0,0-.04,0-.04,0,0-.03.21.02.43.01.07.03.12.05.16"/>
    <path class="cls-2" d="m51.11,8.41c.01.19,0,.33,0,.44-.01.12,0,.25,0,.37,0,.07-.01.14.03.17.05.04.13.01.13.01.08-.03.11-.11.11-.12"/>
    <path class="cls-2" d="m54.13,8.39c.01.19,0,.33,0,.44-.01.12,0,.25,0,.37,0,.07-.01.14.03.17.05.04.13.01.13.01.08-.03.11-.11.11-.12"/>
    <path class="cls-2" d="m50.9,8.61c.14,0,.27.01.41.02"/>
    <path class="cls-2" d="m53.95,8.61c.14,0,.27.01.41.02"/>
    <path class="cls-2" d="m52.91,8.44s-.06-.01-.11,0c-.09.03-.13.11-.14.15,0,.02-.08.18,0,.28.03.04.08.07.14.07.06,0,.09-.06.11-.09.06-.09.06-.19.06-.31,0-.06,0-.11,0-.11,0,0,0,.25.02.56.02.22.05.32-.02.42-.01.02-.08.12-.19.12-.08,0-.16-.06-.2-.15"/>
    <path class="cls-2" d="m53.31,8.45c.01.11.03.26.04.44.03.39.02.66.02.66,0,0,.03-.97-.02-1.09,0,0,0-.02,0-.04.02-.04.14-.02.16-.02.07.01.16.03.21.12.05.07.06.17.02.25-.06.13-.2.15-.28.16-.07.01-.14,0-.18,0"/>
    <path class="cls-2" d="m41.47,15.56c.29-.39.77-.53,1.12-.37.44.21.51.84.37,1.21-.16.42-.54.42-.84.84-.19.27-.34.71-.19,1.49"/>
    <path class="cls-2" d="m48.2,20.49c-.34-.2-.92-.28-1.33-.19-.53.11-.61.43-.44.63.19.22.65.22,1,.44.22.14.41.37.22.78"/>
    <path class="cls-2" d="m46.63,15.91c.2-.14.54-.19.79-.13.31.07.36.29.26.43-.11.15-.38.15-.59.3-.13.09-.24.25-.13.52"/>
    <path class="cls-2" d="m42,19.07c-.1.04-.15.15-.14.26.02.13.14.23.28.21.13-.02.21-.16.19-.28-.03-.15-.19-.24-.32-.19Z"/>
    <path class="cls-2" d="m44.96,1.96c-.1.04-.15.15-.14.26.02.13.14.23.28.21.13-.02.21-.16.19-.28-.03-.15-.19-.24-.32-.19Z"/>
    <path class="cls-2" d="m47.57,22.64c.12.02.18.08.17.13-.02.07-.17.12-.33.11-.15-.01-.25-.08-.22-.14.03-.08.23-.12.39-.1Z"/>
    <path class="cls-2" d="m46.9,17.18c-.06.02-.1.09-.09.16.01.08.09.14.17.13.08-.02.13-.1.12-.17-.02-.09-.12-.15-.2-.11Z"/>
    <rect class="cls-2" x="12.18" y="21.71" width="20.15" height=".79"/>
    <rect class="cls-2" x="12.18" y="21.71" width="20.15" height=".79"/>
    <rect class="cls-2" x="12.18" y="21.71" width="20.15" height=".79"/>
    <rect class="cls-2" x="12.18" y="24.06" width="20.15" height=".79"/>
    <rect class="cls-2" x="12.18" y="26.42" width="20.15" height=".79"/>
    <rect class="cls-2" x="12.18" y="28.98" width="20.15" height=".79"/>
    <rect class="cls-2" x="13.04" y="27.7" width="1.29" height=".79"/>
    <rect class="cls-2" x="13.04" y="22.89" width="1.29" height=".79"/>
    <rect class="cls-2" x="13.04" y="25.24" width="1.29" height=".79"/>
    <rect class="cls-2" x="13.04" y="20.58" width="1.29" height=".79"/>
    <rect class="cls-2" x="12.18" y="18.66" width="3.87" height=".79"/>
    <rect class="cls-2" x="12.18" y="30.65" width="3.87" height=".79"/>
    <rect class="cls-2" x="12.18" y="14.73" width="1.29" height=".79"/>
    <rect class="cls-2" x="12.18" y="40.78" width="1.29" height=".79"/>
    <rect class="cls-2" x="12.18" y="39.54" width=".85" height=".79"/>
    <rect class="cls-2" x="25.31" y="39.54" width=".85" height=".79"/>
    <rect class="cls-2" x="12.18" y="13.23" width="19.72" height=".79"/>
    <rect class="cls-2" x="12.18" y="36.74" width="19.72" height=".79"/>
    <rect class="cls-2" x="12.18" y="12.01" width="18.09" height=".79"/>
    <rect class="cls-2" x="12.18" y="35.52" width="18.09" height=".79"/>
    <rect class="cls-2" x="12.18" y="38.06" width="11.51" height=".79"/>
    <rect class="cls-2" x="13.42" y="39.54" width="11.51" height=".79"/>
    <rect class="cls-2" x="12.18" y="10.62" width="1.29" height=".79"/>
    <rect class="cls-2" x="12.18" y="34.26" width="1.29" height=".79"/>
    <line class="cls-2" x1="11.1" y1="8.46" x2="11.16" y2="48.91"/>
    <rect class="cls-2" x="39.05" y="44.33" width="25.67" height="2.87"/>
    <path class="cls-2" d="m40.39,44.82c0,.17.01.33.01.51,0,.42-.01.82-.04,1.2"/>
    <path class="cls-2" d="m40.95,44.8v1.68"/>
    <path class="cls-2" d="m40.27,45.62h.82"/>
    <path class="cls-2" d="m41.36,45.76c.06.53.13.64.19.64.05,0,.09-.08.19-.23.09-.16.16-.3.2-.4"/>
    <path class="cls-2" d="m42.52,45.74c-.12-.04-.26.08-.33.19-.11.15-.14.42.01.54.11.09.3.09.41,0,.22-.17.11-.67-.09-.73Z"/>
    <path class="cls-2" d="m43.03,45.69c.06.63.08.78.07.78,0,0-.11-.4.07-.59,0,0,.14-.14.28-.1.05.02.09.05.11.07"/>
    <path class="cls-2" d="m44.12,45.88s-.13-.09-.24-.05c-.12.05-.14.22-.15.33-.01.12-.03.29.09.37.09.06.22.05.3-.02.08-.08.07-.22.06-.3-.05-.55.11-1,.1-1,0,0,0,.21-.07.79-.02.16-.04.39.1.58.02.03.04.05.05.06"/>
    <path class="cls-2" d="m45,45.8s-.09-.08-.17-.08c-.12,0-.19.14-.23.22-.08.16-.14.42,0,.6.02.03.09.12.18.12.14,0,.23-.21.24-.24.03-.08.04-.19.04-.42,0-.03,0-.09,0-.18,0-.07,0-.1,0-.11-.01,0-.13.42.02.81.03.08.07.15.1.19"/>
    <path class="cls-2" d="m45.41,45.6c.03.11.06.22.08.35.08.43.06.76.06.76,0,0,.03-.6-.03-.77,0-.01-.02-.06,0-.11.02-.05.06-.07.08-.08.1-.06.21-.02.22-.01.11.04.16.14.2.2.07.13.08.25.09.38,0,.11,0,.2.03.37,0,.02,0,.04,0,.06"/>
    <path class="cls-2" d="m46.6,45.29s-.06-.11-.06-.2c0-.14.08-.29.23-.36.18-.08.36.02.45.12.1.11.14.26.1.39-.04.13-.12.13-.26.35-.04.06-.1.15-.14.29-.05.15-.05.27-.04.36"/>
    <path class="cls-2" d="m46.89,46.39s-.07.06-.08.1c-.01.06,0,.15.04.16.04.01.09-.03.11-.08.03-.08-.03-.18-.07-.18Z"/>
    <path class="cls-3" d="m43.41,50.7H.78c-.09.27-.2.73-.25,1.34-.08.9.04,1.63.1,1.96h87.45c.07-.33.18-1.06.11-1.96-.05-.61-.18-1.07-.26-1.34h-44.51"/>
    <path class="cls-4" d="m31.7,50.98c.24.22.47.39.64.5.21.15.35.24.55.31.35.14.68.15.85.16,2.99.1,4.4.06,4.4.06.86-.02,1.72,0,2.58,0,5.01,0,4.98,0,5.12,0,1.14.04,2.29,0,3.43.03.06,0,.35.01.72-.03.27-.03.55-.06.85-.19.25-.11.29-.19.64-.41.27-.18.51-.3.68-.38"/>
  </g>
</svg>