<?xml version="1.0" encoding="UTF-8"?>
<svg id="Layer_2" data-name="Layer 2" xmlns="http://www.w3.org/2000/svg" viewBox="0 0 668.15 102.21">
  <defs>
    <style>
      .cls-1 {
        stroke-width: 1.5px;
      }

      .cls-1, .cls-2, .cls-3, .cls-4, .cls-5, .cls-6, .cls-7, .cls-8, .cls-9, .cls-10, .cls-11, .cls-12, .cls-13, .cls-14 {
        stroke-miterlimit: 10;
      }

      .cls-1, .cls-2, .cls-4, .cls-5, .cls-6, .cls-8, .cls-9, .cls-10, .cls-11, .cls-12, .cls-14 {
        fill: none;
      }

      .cls-1, .cls-9 {
        stroke: #f1b558;
      }

      .cls-2 {
        stroke-width: .4px;
      }

      .cls-2, .cls-3, .cls-4, .cls-6, .cls-7, .cls-8, .cls-11, .cls-12, .cls-13, .cls-14 {
        stroke: #f7f5f3;
      }

      .cls-3 {
        fill: #e7d5f9;
      }

      .cls-3, .cls-12 {
        stroke-width: .6px;
      }

      .cls-4, .cls-5 {
        stroke-width: .8px;
      }

      .cls-5 {
        stroke: #e7d5f9;
      }

      .cls-6, .cls-13 {
        stroke-width: .7px;
      }

      .cls-7 {
        fill: #a8ff02;
      }

      .cls-8 {
        stroke-width: 2px;
      }

      .cls-10 {
        stroke: #a8ff02;
      }

      .cls-13 {
        fill: #fff7ed;
      }

      .cls-14 {
        stroke-width: .5px;
      }
    </style>
  </defs>
  <g id="Layer_1-2" data-name="Layer 1">
    <polyline class="cls-11" points="668.13 98.65 602.98 100.84 0 101.71"/>
    <path class="cls-11" d="m606.63,34.4c-1.2-.2-1.31-.16-1.48-.31-.46-.39-.42-1.2-.31-1.64.06-.25.17-.69.55-.94s.72-.1,1.95.08c.9.13,1.35.19,1.79.16.74-.06,1.28-.33,1.87-.62,1.43-.72,1.51-1.28,2.42-1.4.12-.02.96-.12,1.72.39.74.5.95,1.3,1.09,1.87.16.62.31,1.21,0,1.79-.32.61-1.07,1.1-1.64.94-.69-.2-.83-1.29-1.01-1.25-.26.06,0,2.37.08,2.96.22,1.92.22,3.85.39,5.77.35,3.89.1,1.97,1.01,13.26.42,5.18.37,4.28.55,6.63.51,6.65.79,12.01.94,15.21.42,9.22.54,10.9.39,11.39-.03.09-.16.45,0,.78.16.34.5.36.78.62.38.36.39.91.39,1.64,0,.66,0,1.51-.55,2.34-.45.67-1.03.97-1.56,1.25-.46.24-1.46.74-2.81.62-.56-.05-1.82-.16-2.57-1.09-.36-.44-.47-1.18-.7-2.65-.12-.8-.21-1.38-.23-2.18-.03-1.27.15-1.64.23-3.2.06-1.13-.03-1.04,0-2.42.04-1.76.2-2.32.31-4.14.09-1.41.08-2.46.08-3.35-.01-1.97-.14-3.1-.47-6.71-.31-3.39-.19-2.32-.47-5.31-.59-6.42-.64-5.95-.7-7.49-.14-3.28.13-3.69-.08-7.41-.13-2.37-.23-2.06-.31-4.06-.12-3.06.1-4.3-.16-6.79-.18-1.79-.36-1.76-.31-2.73.04-.76.17-1.45-.23-1.79-.09-.07-.17-.11-.94-.23h-.01Z"/>
    <path class="cls-11" d="m635.34,21.78c1.01-.29,1.1-.25,1.24-.44.37-.48.28-1.44.16-1.96-.07-.29-.19-.81-.53-1.08s-.62-.08-1.66.18c-.76.2-1.14.29-1.52.27-.64-.04-1.11-.33-1.64-.65-1.27-.79-1.37-1.44-2.15-1.55-.1,0-.83-.1-1.44.54-.6.63-.72,1.59-.81,2.27-.09.74.1,1.38.12,2.13.12,4.52.49,6.34.75,7.13.57,1.69,1.16.8,1.19.64.2-1.17.45-5.45.43-4.74-.06,2.28.06,4.58.04,6.86-.05,4.63.04,2.34,0,15.77-.02,6.16-.04,5.09-.04,7.89,0,7.91.1,14.27.18,18.08.23,10.95.24,12.95.4,13.52.03.1.16.52.05.93-.12.41-.4.45-.62.78-.3.45-.27,1.1-.23,1.96.04.78.09,1.8.62,2.75.43.78.94,1.11,1.41,1.41.4.26,1.3.81,2.43.61.47-.08,1.54-.28,2.12-1.41.28-.54.33-1.42.43-3.18.05-.95.09-1.64.06-2.6-.06-1.51-.23-1.94-.41-3.78-.12-1.34-.04-1.23-.16-2.87-.15-2.09-.32-2.74-.53-4.89-.17-1.67-.23-2.92-.28-3.97-.12-2.33-.08-3.68-.03-7.98.05-4.04.01-2.76.06-6.31.09-7.64.16-7.09.12-8.91-.1-3.89-.35-4.37-.41-8.79-.04-2.81.07-2.46,0-4.83-.1-3.64-.36-5.09-.3-8.06.04-2.13.19-2.1.09-3.25-.08-.9-.24-1.71.08-2.14.07-.09.14-.14.78-.32h0Z"/>
    <line class="cls-8" x1="605.28" y1="90.53" x2="620.69" y2="89.62"/>
    <line class="cls-8" x1="640.11" y1="88.28" x2="626.93" y2="87.91"/>
    <path class="cls-11" d="m612.66,96.32c-.03.17-.09.4-.19.67-.08.23-.31.82-.78,1.29-.69.69-1.59.8-2.31.89-.48.06-.88.05-1.16.03"/>
    <path class="cls-11" d="m634.2,95.48c.04.2.1.47.2.79.09.26.31.96.75,1.49.63.78,1.41.87,2.02.94.41.05.75.02.99-.02"/>
    <path class="cls-11" d="m614.78,96.09c.03.17.09.4.2.67.09.23.32.82.82,1.29.72.69,1.67.8,2.42.89.5.06.92.05,1.21.03"/>
    <path class="cls-11" d="m632.37,95.31c-.02.2-.05.48-.12.81-.06.27-.22.99-.61,1.57-.57.85-1.37,1.02-2.01,1.16-.42.09-.78.1-1.03.09"/>
    <path class="cls-12" d="m609.54,27.65c.03.21.06.52.09.89.04.71.02,1.29-.02,1.72-.06.69-.15.95-.2,1.07-.12.31-.26.54-.37.7"/>
    <path class="cls-12" d="m632.43,13.91c-.01.25-.02.62-.02,1.06,0,.85.07,1.53.13,2.04.1.82.19,1.12.24,1.26.12.36.26.63.36.81"/>
    <path class="cls-11" d="m607.71,27.58c-.23-.18-.55-.48-.87-.9-.36-.48-.67-.9-.69-1.47-.01-.4.13-.69.36-1.17.3-.63.63-1.02.84-1.29,0,0,.68-.88,1.26-2.12.61-1.33.7-2.53.78-3.5.11-1.42-.04-2.45,0-2.45.05,0,.15,1.53.48,3.65.22,1.47.34,2.22.6,2.9.31.81.57,1.14.93,2.27.25.79.38,1.21.39,1.76,0,.96-.36,1.76-.72,2.3"/>
    <path class="cls-9" d="m633.63,15.71c.18-.23.44-.59.68-1.1.28-.58.52-1.09.49-1.77-.02-.47-.15-.81-.38-1.37-.3-.73-.6-1.18-.8-1.49,0,0-.64-1.01-1.21-2.46-.61-1.54-.76-2.97-.89-4.11-.18-1.67-.13-2.91-.16-2.91-.04,0-.03,1.82-.17,4.35-.1,1.76-.15,2.65-.32,3.47-.21.98-.41,1.38-.64,2.74-.16.95-.25,1.45-.22,2.11.05,1.14.42,2.07.76,2.7"/>
    <polygon class="cls-12" points="496.18 100.51 496.18 98.28 496.18 96.06 482.49 96.06 431.23 96.06 389.88 96.06 381.7 96.06 381.17 97.38 381.17 100.51 496.18 100.51"/>
    <path class="cls-12" d="m386.71,96.06c-.08-1.42-.17-3.59-.15-6.23.02-3.68.24-5.91.41-8.78.3-5.11.05-5.25.26-11.89.14-4.37.35-7.46.77-13.63,1.02-14.96,1.11-12.28,1.07-13.58,0-.29-.06-2.15.51-4.44.34-1.35.61-2.39,1.48-3.42,1.11-1.32,2.55-1.86,3.32-2.14,1.11-.42,2.03-.52,2.4-.56,5.21-.56,8.78-.15,8.78-.15,3.89.45,7.83.09,11.75.21,11.15.34,9.85.13,18.46.42,14.4.48,14.11.93,21.19.84,3.98-.05,7.96.06,11.95.08,0,0,2.16,0,6.65.34,2.94.21,4.1.38,5.47.84,1.47.49,3.11,1.04,4.46,2.52.49.54,1.34,1.65,2.1,5.05.78,3.48.76,6.25.76,6.98,0,0,0,.73.25,13.04.07,3.38.14,2.1.59,11.69.21,4.38.38,8.06.5,12.79.11,4.12.15,7.53.16,9.92"/>
    <path class="cls-3" d="m388.67,95.91v-14.98l.64-12.48c.29-4.58.47-8.22.58-10.73.13-2.89.18-4.58.47-7.23.27-2.52.39-2.51.7-5.54.04-.43.24-1.9.64-4.84.15-1.12.28-2.02.82-3.09.23-.46.67-1.32,1.57-2.04.79-.63,1.62-.9,2.22-1.05,4.13-1.01,13.88-.47,13.88-.47,2.46.14,1.05-.02,8.28.18,11.62.32,10.13.6,10.97.52.23-.02,1.1-.11,2.13.18.37.1.8.22,1.28.55.74.5.77.94,1.4,1.28.5.27.98.25,1.4.24,1.28-.03,2.55.11,3.83.06,4.11-.15,6.17-.22,6.75-.06.21.06.84.25,1.28-.06.23-.16.24-.34.55-.73,0,0,.37-.47.85-.79.62-.41,1.3-.42,1.7-.43,2.5,0,3.75-.02,5.11.06.84.05.23,0,3.53.06,1.65.04,3.5.08,5.84.18,2.3.1,1.81.12,4.5.24,1.48.07,2.48.1,4.01.24,1.5.14,2.26.26,2.8.36.8.15,1.36.3,2.49.61,1.42.38,2.14.58,2.55.85.65.43.99.92,1.64,1.89.38.57,1.04,1.54,1.52,2.86.55,1.5.58,2.6.7,4.43.26,3.94.44,3.08.66,6.84.14,2.32.14,3.68.17,6.46,0,0,.06,4.54.24,10.82.16,5.37.37,9.61.45,11.14.1,1.93.24,4.25.52,8.9.14,2.37.27,4.34.35,5.69"/>
    <path class="cls-11" d="m343.26,96.31c.06.51.11.94.14,1.26.14,1.33.21,2,.21,2.16-.01.59-.09.79.07.98.26.31.82.21,1.4.14.88-.11,1.77-.05,2.65-.14,1.55-.15,2.75-.11,3.77-.07,1.05.04,1.07.09,3.21.21,3.48.19,2.2-.03,2.37,0,.29.05.66.13.84-.07.16-.17.04-.41-.07-1.12-.13-.83,0-.78-.14-1.68-.09-.6-.16-.71-.07-.91.17-.37.6-.44,1.12-.63s.28-.19,1.88-1.12c1.14-.66,1.71-.99,2.16-1.19.85-.37,1.21-.42,1.47-.84.26-.41.19-.84.14-1.4-.08-.95.04-1.91,0-2.86-.06-1.3-.05-2.61-.07-3.91-.01-.67,0-.28-.07-4.68-.02-1.09-.14-2.19-.07-3.28.06-1.05.17-1.4-.07-1.88-.12-.24-.47-.81-2.57-1.5-1.23-.4-2.22-.57-2.92-.68-1.76-.28-2.92-.39-4.07-.52-3.4-.39-3.11-.51-5.12-.68-2.33-.19-4.14-.14-4.91-.1-1.52.06-2.67.21-4.39.42-2.98.37-2.31.46-3.55.52-1.17.06-1.8-.02-2.45.47-.48.36-1.01,1.06-.94,1.78.04.42.27.51.42,1.15.12.52.08.91.05,1.31-.06.82.02,1.64,0,2.45-.03,1.44-.02,2.56,0,4.65.01,1.14.03,2.11.05,3.24.03,1.29.05,2.33.05,3.39v1.46c-.06.41-.15.67,0,.89.18.26.55.27.89.31.71.08,1.35.43,2.04.63,1.48.43,2.21.64,2.35.68,1.47.37,1.48.25,2.14.52.55.22.85.43,1.46.52.52.08.9.03,1.2,0,.43-.04,1.37-.03,3.24,0,.63,0,1.53.04,2.61.1"/>
    <path class="cls-4" d="m363.73,75.31c-.23.17-.56.41-.97.67-.12.07-1.67,1.05-3.67,1.73-3.44,1.17-8.64,1.6-10.48,1.73,0,0-2.78.2-7,.03-1.32-.05-2.78-.14-4.36-.82-.16-.07-1.09-.78-2.94-2.21-.08-.06-.27-.21-.24-.36.04-.24.55-.35.76-.39,3.98-.84,2-.8,4.06-.88,4-.16,6.97-.08,6.97-.08,1.7.04,1.11.05,4.04.15,1.55.05,3.09.21,4.63.25.4,0,1.71.04,3.24.6,1.1.4,1.24.68,1.25.85.02.39-.65.71-1.15.95-.6.28-1.66.79-2.54.35-.48-.24-.45-.53-.95-.95-.74-.62-1.63-.65-2.44-.7-1.46-.08-2.92-.26-4.38-.3-2.97-.08-4.45-.12-5.03-.15-.75-.04-2.02-.11-3.69.1-2.06.25-2.22.62-2.24.75-.08.43.78.94,1.05,1.1.84.49,1.93.79,5.58.7.75-.02.55-.03,1.4-.05,2.85-.08,3.7.06,5.78-.05,1-.05,2.88-.15,2.89-.4s-1.87-.52-2.74-.65c-1.3-.19-1.8-.19-5.58-.4-1.39-.08-2.3-.13-3.59,0-.75.08-2.15.27-2.14.45,0,.13.72.28,3.94.4"/>
    <path class="cls-5" d="m351.75,64.84c-.32.18-.82.43-1.48.62-1.71.49-3.12.16-4.12-.08-1.15-.28-1.73-.42-2.02-.93-.46-.8.08-1.88.47-2.64.62-1.24,1.53-1.96,2.1-2.33.48-.31,2.19-1.42,3.03-.78.45.34.46,1.02.47,1.17,0,.04,0,.98-.7,1.48-.12.09-.53.35-1.48.23-.51-.06-2.9-.35-3.5-2.26-.29-.93.05-1.73.54-2.88.5-1.16,1.83-3.62,4.51-4.67.68-.26,1.86-.73,2.49-.16.43.39.48,1.17.23,1.71-.35.77-1.25.97-1.79,1.09-.86.19-1.47.06-2.33-.08-2.34-.36-2.6-.12-5.44-.62-1.39-.24-1.68-.36-1.94-.62-.9-.87-.68-2.42-.54-3.42.11-.79.38-2.53,1.79-4.04,1.05-1.13,2.15-1.5,4.2-2.18,1.79-.59,2.94-.96,4.2-.47.24.09,1.5.59,1.87,1.79.04.13.33,1.08-.16,1.63-.41.47-1.13.39-2.49.23-.7-.08-1.79-.27-3.19-.78-.74-.27-1.23-.51-1.94-.86-1.68-.81-2.52-1.22-3.11-1.87-.66-.72-.9-1.44-1.24-2.49-.31-.94-.79-2.4-.47-4.28.31-1.79,1.17-2.97,1.4-3.27.97-1.27,2.13-1.9,2.72-2.18"/>
    <path class="cls-11" d="m246.52,92.35c-.89.06-1.62.19-2.16.31-1.4.31-1.79.6-2.01.82-.15.15-.73.7-.61,1.16.19.7,1.92.79,2.57.82,7.37.33,11.05.5,11.98.45,2-.11,6.26.1,14.78.5,5.96.29,5.28.37,8.03.43,6.61.14,7.48-.4,14.5-.38,5.22.02,10.23.34,10.57.36,3.83.25,5.17.47,8.28.42,4.75-.08,2.93-.61,8.12-.85,1.71-.08,3.59-.1,4.04-1.12.21-.47.07-1.04-.16-1.4-.68-1.04-2.52-.9-3.97-.79-1.02.08-1.85.28-2.41.45"/>
    <path class="cls-11" d="m256.33,101.6c-.07-.38-.25-1.05-.8-1.62-.42-.43-.87-.62-1.16-.73-1.37-.52-2.43-.57-3.69-.79-1.73-.3-3.01-.78-4.33-1.28-.86-.32-1.29-.48-1.73-.78-.27-.18-.56-.41-1.06-.64-.35-.16-.66-.25-.87-.3"/>
    <path class="cls-11" d="m310.8,101.67c.05-.28.18-.78.67-1.22.37-.33.78-.49,1.04-.58,1.24-.44,2.22-.52,3.37-.74,1.58-.29,2.74-.7,3.94-1.12.78-.27,1.17-.41,1.56-.64.24-.14.5-.32.95-.51.32-.13.6-.21.79-.26"/>
    <path class="cls-9" d="m315.68,95.38c.14-.12.7-.63.79-1.49.01-.12.09-.91-.41-1.55-.83-1.08-2.69-.96-3.15-.93-1.09.07-1.63.43-2.11.06-.28-.22-.3-.5-.49-1.09,0,0-.32-1-1.07-2.18-.53-.84-1.2-1.23-2.44-1.96-1.51-.88-2.73-1.6-4.36-1.63-1.72-.04-2.94.7-3.3.18-.21-.3.14-.61.06-1.2-.13-.96-1.28-1.53-2.72-2.23-.87-.42-2.3-1.01-4.26-1.36-1.66-.29-2.8-.48-3.58.19-.46.39-.71.99-.8.94-.13-.06.55-1.09.23-1.84-.28-.65-1.18-.8-2.42-1.04-3.98-.78-3.26-.99-4.72-1.07-1.83-.1-1.33.32-5.13.59-.59.04-1.64.11-2.83.63-.61.26-1.12.49-1.55,1.02-.56.69-.7,1.52-.92,1.48-.12-.02-.1-.27-.28-.52-.14-.2-.47-.47-1.47-.46-1.69,0-3.24.81-3.51.95-1.34.7-2.36,1.24-2.76,2.34-.29.8-.2,1.74-.38,1.76-.11,0-.13-.33-.37-.59-.42-.46-1.22-.37-1.9-.26-1.59.25-2.39.37-3.63.88-.82.34-1.99.83-2.96,1.8-.49.48-1.1,1.09-1.1,1.82,0,.09,0,.39-.06.41-.09.02-.14-.45-.45-.71-.43-.36-1.16-.15-1.36-.08-.22.06-1.01.34-1.38,1.16-.35.79-.06,1.53.07,1.86.39.98,1.19,1.45,1.57,1.68.76.45,1.5.56,1.95.59"/>
    <path class="cls-9" d="m253.48,91.94c-.1-.41-.21-.76-.29-1.02-.15-.48-.23-.73-.38-.99-.07-.12-.2-.34-.37-.59-.06-.09-.12-.16-.16-.22"/>
    <path class="cls-9" d="m261.18,90.19c.13-.19.3-.49.44-.88.05-.14.12-.37.25-1.43.13-1.07.07-.89.14-1.28,0,0,.12-.65.1-1.05v-.45"/>
    <path class="cls-9" d="m270.79,89.61c-.12-.23-.28-.58-.38-1.03-.07-.32-.13-.73-.05-1.89.06-.85.09-1.27.2-1.85.2-1.04.44-1.47.52-2.37.02-.25.05-.71-.12-1.24-.05-.14-.09-.26-.13-.33"/>
    <path class="cls-9" d="m287.37,89.52c-.04-.41-.07-.92-.06-1.51.01-.92.12-1.62.15-1.8.14-.88.24-.85.41-1.88.15-.88.17-1.46.18-1.67.01-.51-.03-1.1-.03-1.14,0-.14-.02-.26-.03-.35"/>
    <path class="cls-9" d="m296.94,91.98c.18-.23.41-.58.66-1.03.18-.33.26-.54.56-1.26.69-1.67.7-1.68.75-1.89.03-.12.09-.6.23-1.55.05-.39.1-.71.13-.93"/>
    <path class="cls-9" d="m309.16,95.2c.2-.47.41-.82.56-1.06.19-.3.31-.42.38-.7.08-.29.02-.39.15-.64.1-.19.18-.23.32-.48.09-.16.15-.31.18-.41"/>
    <polygon class="cls-10" points="139.4 100.8 140.32 97.87 141 94.86 141.52 92.17 145.6 92.21 176.76 92.5 196.5 92.2 205.23 92.28 211.68 92.35 218.62 91.11 219.26 92.66 219.64 95.11 219.6 99.44 219.59 100.5 139.4 100.8"/>
    <path class="cls-10" d="m148.83,92.65c-.27.64-.52,1.36-.71,2.15-.58,2.42-.39,4.54-.06,6.09"/>
    <path class="cls-11" d="m151.32,83.54c-.27.64-.52,1.36-.71,2.15-.58,2.42-.39,4.54-.06,6.09"/>
    <path class="cls-11" d="m154.08,83.57c-.27.64-.52,1.36-.71,2.15-.58,2.42-.39,4.54-.06,6.09"/>
    <path class="cls-10" d="m151.75,92.67c-.27.64-.52,1.36-.71,2.15-.58,2.42-.39,4.54-.06,6.09"/>
    <path class="cls-10" d="m206.32,91.84c.26.71.47,1.5.61,2.35.42,2.61-.08,4.81-.68,6.39"/>
    <path class="cls-11" d="m203.98,84.72c.23.63.43,1.32.55,2.07.38,2.31-.07,4.24-.6,5.63"/>
    <path class="cls-11" d="m206.42,84.6c.23.63.43,1.32.55,2.07.38,2.31-.07,4.24-.6,5.63"/>
    <path class="cls-10" d="m209.17,91.87c.26.71.47,1.5.61,2.35.42,2.61-.08,4.81-.68,6.39"/>
    <path class="cls-11" d="m144.78,91.72c.09-.95.24-2.77.36-3.27.35-1.54.6-1.6.68-2.6.07-.91-.09-1.35.26-1.79.33-.41.84-.51,1.15-.56,2.42-.41,4.57-.2,4.57-.2,0,0,.34.03,3.99.28,2,.14,3.22.12,5.38.13,2.91.02,5.82.11,8.73.16,4.53.08,7.85.2,12.48.36,11.62.41,10.9.58,13.54.45,3.23-.15,5.18-.44,8.57-.08,3.01.32,3.34.75,5.46.62,2.11-.13,3.85-.69,4.73.29.22.25.29.48.48,1.31.23,1.02.54,2.41.86,4.09"/>
    <path class="cls-1" d="m130.02,100.65c-1.8-.16-4.6-.42-8.03-.79-6.2-.65-6.84-.83-9.35-1-4.58-.32-4.44.12-12.41.09-7.4-.03-11.1-.04-12.41-.32-2.36-.5-4.84-1.34-7.42-.27-.45.19-1.93.85-3.47,1.6-1.63.79-2.16,1.1-3.17,1.29-.6.12-1.38.1-2.95.07-1.74-.03-2.63-.05-3.46-.24-.98-.22-1.83-.41-2.74-1.04-.78-.55-.91-.95-1.72-1.34-.82-.4-1.59-.42-2.03-.43-4.13-.05-6.41.35-6.41.35-1.18.21-3.23.42-7.33.85-3.52.37-6.15.46-8.45.53-4.63.15-4.83-.07-11.19,0-5.11.05-5.68.21-8.85.12-3.47-.09-6.3-.37-8.13-.58"/>
    <path class="cls-9" d="m63.03,98.17c.12-.12.33-.28.59-.29.33,0,.58.21.73.34.46.39,1.06.59,1.56.93.95.65,2.48.75,3.8.84,2.04.14,3.77.26,5.56-.61.85-.41,1.56-.96,2.94-1.18.69-.11,1.28-.09,1.68-.06"/>
    <path class="cls-2" d="m70.72,98.77c.05-.45.15-1.06.38-1.75,0,0,.47-1.45,1.36-2.59,1.19-1.54,3.18-2.19,5.05-2.62,4.96-1.13,9.24-.71,10.61-.57,3.57.38,5.67.92,9.55,1.78,5.45,1.21,3.1.53,14.45,2.86,4.58.94,9.88,2.06,15.78,3.36"/>
    <path class="cls-2" d="m71.16,97.89c-.06-.43-.17-1.01-.41-1.66,0,0-.49-1.37-1.38-2.44-1.2-1.44-3.16-2.02-5.01-2.39-4.89-.98-9.1-.5-10.43-.33-3.5.43-5.55.99-9.36,1.88-5.34,1.25-3.04.57-14.15,3-4.48.98-9.67,2.15-15.45,3.5"/>
    <path class="cls-2" d="m70.94,98.83c.19-.42.48-1.02.85-1.74.53-1.03.79-1.55,1.1-1.94.72-.95,1.62-1.38,2.51-1.8.34-.16,1.39-.63,4.28-1.06.9-.13,2.19-.33,3.78-.39,2.5-.1,4.97.15,9.36,1.01,4.85.94,4.81,1.22,9.44,2.11,3.4.66,3.37.5,7.42,1.26,3.97.74,4.96,1.07,8.48,1.76,2.13.42,5.27.98,9.17,1.5"/>
    <path class="cls-2" d="m70.94,97.95c-.2-.39-.49-.96-.86-1.64-.54-.97-.81-1.46-1.11-1.83-.73-.89-1.62-1.28-2.5-1.66-.34-.15-1.37-.57-4.22-.93-.88-.11-2.16-.27-3.72-.3-2.46-.05-4.88.24-9.18,1.14-4.75.99-4.71,1.25-9.24,2.19-3.33.69-3.3.54-7.27,1.34-3.89.79-4.85,1.12-8.3,1.84-2.09.44-5.16,1.04-8.99,1.61"/>
    <path class="cls-2" d="m71.42,98.9c.17-.23.41-.57.7-1,.66-1,.82-1.34,1.14-1.78.61-.83,1.32-1.27,1.83-1.59.65-.41,1.48-.79,3.8-1.21,1.27-.23,3.05-.54,5.5-.57,1.03,0,2.59.02,4.48.27,1.56.21,2.34.43,5.21,1.13,3.35.82,5.03,1.23,6.76,1.58,1.79.36,1.91.32,6.38,1.02,1.19.19,3.68.6,8.67,1.44,2.03.34,4.75.79,7.98,1.34"/>
    <path class="cls-2" d="m70.47,98.03c-.17-.21-.42-.54-.71-.94-.67-.93-.83-1.26-1.16-1.67-.62-.77-1.32-1.18-1.83-1.48-.64-.37-1.46-.72-3.76-1.07-1.25-.19-3-.46-5.41-.43-1.01,0-2.54.07-4.4.35-1.52.23-2.29.45-5.1,1.18-3.28.84-4.92,1.27-6.62,1.63-1.75.38-1.87.34-6.25,1.1-1.17.2-3.61.65-8.5,1.54-1.99.36-4.66.85-7.82,1.43"/>
    <path class="cls-2" d="m72.28,98.92c.36-.37.85-.85,1.46-1.36.46-.38,1.35-1.11,2.62-1.79.07-.04,1.64-.87,3.5-1.32,2.83-.68,5.72-.32,8.33.1,5.21.85,7.24,1.63,12.39,2.65,2.69.53,4.88.86,6.21,1.04"/>
    <path class="cls-2" d="m69.62,98.07c-.36-.35-.85-.79-1.46-1.27-.46-.35-1.35-1.03-2.61-1.66-.07-.03-1.63-.8-3.47-1.19-2.8-.6-5.63-.2-8.19.26-5.11.91-7.16,1.4-12.13,2.76-2.88.79-7.67,2.44-8.97,2.64"/>
    <path class="cls-2" d="m73.26,99c.59-.46,1.4-1.04,2.45-1.58.61-.31,2.32-1.15,4.76-1.55,2.04-.34,3.54-.2,5.83.03,3.02.3,4.42.73,10.28,1.84,1.47.28,2.66.49,3.39.62"/>
    <path class="cls-2" d="m68.66,98.16c-.58-.43-1.4-.96-2.43-1.45-.6-.29-2.31-1.05-4.71-1.39-2.01-.28-3.49-.12-5.72.14-2.96.34-4.33.78-10.07,1.95-1.44.29-6.78,2.11-7.49,2.25"/>
    <path class="cls-9" d="m74.18,99.48c-.32-.19-.79-.44-1.39-.63-1.31-.42-2.42-.33-3.13-.26-.6.06-1.43.2-2.39.55"/>
    <path class="cls-11" d="m70.89,95.42c.15.05.37-.67,1.05-1.56,0,0,.68-.89,1.8-1.68,1.45-1.02,3.02-1.31,4.25-1.5,4.71-.72,7.47-.59,7.47-.59,3.69.17,6.26.72,10.66,1.64,3.59.75,7.18,1.49,10.78,2.23,8.61,1.79,10.6,2.14,15.29,3.25.85.2,2.72-.28,2.57.59,0,0-6.05-1.03-13.18-3.45-2.54-.86-1.92-.78-6.72-2.51-5.09-1.83-7.64-2.75-10.48-3.42-3.14-.75-3.67-.6-7.42-1.58-1.95-.5-2.74-.79-4.38-1.01-3.32-.46-5.46-.04-6,.07,0,0-3.45.72-4.67,2.5-.25.36-.35.75-.35.75-.09.32-.08.58-.08.68,0,.73-.16,1.45-.22,2.17-.21,2.24-.53,3.36-.35,3.42h-.02Z"/>
    <path class="cls-11" d="m70.93,94.71c-.14.05-.37-.63-1.06-1.46,0,0-.69-.83-1.8-1.56-1.44-.94-2.99-1.19-4.21-1.34-4.64-.59-7.36-.42-7.36-.42-3.62.24-6.13.8-10.44,1.77-3.52.78-7.03,1.56-10.55,2.34-8.43,1.87-10.38,2.25-14.96,3.39-.84.21-2.68-.21-2.51.61,0,0,5.93-1.1,12.89-3.54,2.48-.87,1.87-.78,6.56-2.52,4.97-1.84,7.45-2.76,10.24-3.46,3.08-.77,3.6-.64,7.27-1.64,1.9-.52,2.68-.8,4.29-1.05,3.25-.5,5.37-.15,5.89-.05,0,0,3.4.61,4.63,2.29.25.34.36.71.36.71.09.31.09.55.09.64,0,.69.18,1.37.26,2.06.25,2.13.59,3.19.41,3.25v-.02Z"/>
    <path class="cls-11" d="m505.42,100.71c.05-1.26.34-4.05,2.28-6.64,1.97-2.63,4.51-3.58,6.61-4.36,1.79-.67,7.04-2.61,12.37-.28,1.05.46,3.08,1.37,4.71,3.54,2.25,2.99,2.21,6.31,2.15,7.39l-28.11.35h-.01Z"/>
    <path class="cls-12" d="m509.77,91.92c1.79-.57,3.83-1.07,6.09-1.34,6.18-.76,11.36.41,14.9,1.62"/>
    <line class="cls-12" x1="521.51" y1="90.38" x2="521.65" y2="88.15"/>
    <path class="cls-11" d="m554.24,51.69c-.39-.76-1.78-.67-1.98-.66-.32.02-2.13.18-2.54,1.4-.36,1.06.57,2.19.87,2.55,1.3,1.59,3.25,1.94,3.97,2.06,9.7,1.62,16.9,1.48,16.9,1.48,2.15-.04,5.08-.13,8.81-.82,4.59-.86,6.33-1.88,6.82-3.29.16-.46.35-1.43-.08-1.81-.39-.35-1.12-.06-1.9.25-1.32.51-2.71.83-3.97,1.48-2.1,1.08-4.34,1.19-8.81,1.4-1.47.07-3.12,0-6.43-.16-.51-.02-2.99-.35-7.94-.99-1.18-.15-3.48-.47-3.73-1.56-.11-.48.24-.85,0-1.32h0Z"/>
    <path class="cls-11" d="m552.6,56.72c.09.9.11,2.26-.4,3.81-.36,1.1-.67,1.33-2.06,3.95-1.46,2.74-1.73,3.63-1.83,3.95-.39,1.34-.44,2.4-.48,3.21-.17,4-.1,7.57-.08,9.37.03,1.98.05,4.26,0,7.23-.04,2.47-.07,3.71-.08,3.81-.3,2.41-.24,3.48-.08,4.89.12,1.07,1.03,2.61,1.96,2.67,10.38.63,20.15-.05,20.15-.05,13.34,0,10.02.15,16.06-.08.11,0,1.05-.07,2.14-.47.62-.22,1.05-.38,1.35-.74.46-.53.3-1.12.24-2.07-.06-.98.1-.56.16-2.68.07-2.31-.11-3.21-.16-5.49-.01-.55,0-.8.08-4.02,0,0,.12-4.57.16-9.97,0-1.06,0-2.52-.32-4.42-.29-1.69-.45-2.55-1.11-3.55-.62-.93-1.12-1.17-1.9-2.48-.52-.86-.79-1.57-.95-2.01-.58-1.55-.72-2.81-.79-3.55-.07-.68-.08-1.26-.08-1.67"/>
    <path class="cls-11" d="m576.29,55.13c.18-3,.35-6.06.46-7.69.31-4.37.47-5.95.69-9.79.04-.65.13-2.26.23-4.27.15-3,.23-4.5.23-4.66.02-3.65-.45-5.03.39-5.59.58-.39,1.57-.26,2.01.23.42.47.29,1.22.23,1.55-.59,3.58-.27,7.25-.46,10.88-.04.79-.04.98-.08,1.71-.14,3.07-.52,8.31-1.62,17.48"/>
    <path class="cls-11" d="m577.96,23.05c-.22-.43-.5-1.07-.74-1.88-.22-.76-.6-2.07-.41-3.67.1-.83.31-1.43.71-2.55.36-1.02.51-1.15.82-2.12.4-1.25.5-2.11.6-2.09.1,0-.03.8.14,1.88.21,1.37.74,2.35.79,2.33.04-.02-.23-.68-.3-1.73-.04-.67,0-1.36.08-1.36s.14.72.3,1.67c.26,1.51.46,1.75.79,3.21.3,1.33.52,2.33.49,3.58-.03,1.29-.33,2.36-.6,3.09"/>
    <path class="cls-2" d="m578.61,23.05c-.15-.32-.34-.76-.52-1.3-.2-.59-.57-1.76-.6-3.3-.02-1.29.2-2.29.3-2.73.11-.47.27-1.03.55-2,.13-.47.25-.86.33-1.12"/>
    <path class="cls-2" d="m578.97,22.92c-.06-.24-.15-.58-.25-1-.12-.52-.38-1.61-.49-2.24-.22-1.28-.12-2.31,0-3.46.08-.84.26-1.95.63-3.21"/>
    <path class="cls-2" d="m579.3,23.14c-.02-.26-.04-.65-.08-1.12-.1-1.15-.17-1.45-.25-2.3-.04-.52-.06-1.03-.08-2.06-.03-1.01-.04-1.52,0-2.12.04-.69.13-1.25.19-1.64"/>
    <path class="cls-2" d="m579.63,23.23c.02-.39.03-.99.03-1.73s-.03-1.32-.08-2.27c-.07-1.42-.1-1.57-.11-2.21,0-.86.04-1.56.08-2"/>
    <path class="cls-2" d="m580.12,23.26c.17-.36.38-.9.52-1.58.04-.19.19-.98.11-2.06-.01-.15,0-.06-.36-2-.11-.63-.21-1.2-.38-2.12-.03-.16-.05-.3-.07-.39"/>
    <path class="cls-2" d="m579.77,23.26c.09-.37.2-.91.27-1.59.02-.19.1-.99.06-2.09,0-.16,0-.06-.19-2.02-.06-.64-.11-1.22-.2-2.15-.02-.17-.03-.3-.04-.39"/>
    <path class="cls-2" d="m577.6,25.86c.33-.09.82-.17,1.4-.14.59.03,1.07.16,1.4.28"/>
    <path class="cls-2" d="m577.6,30.08c.33-.09.82-.17,1.4-.14.59.03,1.07.16,1.4.28"/>
    <g>
      <path class="cls-11" d="m576.29,54.47c-.1-2.15-.2-3.9-.27-5.07-.18-3.13-.27-4.27-.4-7.02-.02-.46-.07-1.62-.13-3.07-.09-2.15-.13-3.23-.13-3.34-.01-2.62.26-3.61-.22-4.01-.33-.28-.91-.18-1.16.17-.24.34-.17.88-.13,1.11.34,2.57.15,5.2.27,7.8.02.56.03.7.04,1.23.08,2.2.47,6.74,1.11,13.31"/>
      <path class="cls-11" d="m575.33,31.89c.13-.31.29-.77.43-1.35.13-.54.35-1.48.24-2.63-.06-.59-.18-1.02-.41-1.83-.21-.73-.3-.83-.47-1.52-.23-.9-.29-1.51-.35-1.5-.06,0,.02.57-.08,1.35-.12.98-.43,1.69-.46,1.67-.02,0,.14-.49.17-1.24.02-.48,0-.98-.05-.98-.04,0-.08.52-.17,1.2-.15,1.08-.27,1.25-.46,2.31-.17.96-.3,1.67-.28,2.57.02.93.19,1.69.35,2.22"/>
      <path class="cls-2" d="m574.95,31.89c.09-.23.2-.54.3-.94.11-.42.33-1.26.35-2.37.01-.92-.12-1.64-.17-1.96-.06-.33-.16-.74-.32-1.44-.08-.34-.14-.62-.19-.8"/>
      <path class="cls-2" d="m574.74,31.81c.03-.17.08-.42.14-.72.07-.37.22-1.15.28-1.61.13-.91.07-1.66,0-2.48-.05-.6-.15-1.4-.36-2.31"/>
      <path class="cls-2" d="m574.55,31.96c0-.19.02-.47.05-.8.06-.83.1-1.04.14-1.65.03-.37.03-.74.05-1.48.01-.72.02-1.09,0-1.52-.02-.5-.07-.9-.11-1.17"/>
      <path class="cls-2" d="m574.36,32.03c0-.28-.02-.71-.02-1.24s.02-.95.05-1.63c.04-1.02.06-1.13.06-1.59,0-.62-.02-1.12-.05-1.44"/>
      <path class="cls-2" d="m574.08,32.05c-.1-.26-.22-.64-.3-1.13-.02-.13-.11-.7-.06-1.48,0-.11,0-.04.21-1.44.07-.45.12-.86.22-1.52.02-.12.03-.21.04-.28"/>
      <path class="cls-2" d="m574.28,32.05c-.05-.26-.12-.65-.16-1.14-.01-.14-.06-.71-.03-1.5,0-.11,0-.04.11-1.45.03-.46.06-.87.12-1.54,0-.12.02-.22.02-.28"/>
      <path class="cls-2" d="m575.53,33.91c-.19-.06-.47-.12-.81-.1-.34.02-.62.12-.81.2"/>
      <path class="cls-2" d="m575.53,36.94c-.19-.06-.47-.12-.81-.1-.34.02-.62.12-.81.2"/>
    </g>
    <path class="cls-2" d="m554.54,52.21c-1.29-2.5-3.15-6.2-5.3-10.84-5.53-11.91-10.93-25.59-10.46-26.3.13-.2.78.82,2.09,2.85,2.13,3.33,3.58,6.34,3.9,7,4.73,9.9,8.86,20.78,9.71,23.02.93,2.45,2.19,5.27,2.64,6.51"/>
    <path class="cls-11" d="m582.9,53.2c.37-2.83.87-7,1.33-12.15,1.2-13.24,1.74-28.13,1.11-28.63-.18-.14-.44,1.05-.96,3.45-.86,3.91-1.2,7.27-1.28,8.02-1.12,11.06-1.41,22.83-1.46,25.25-.06,2.65.1,3.44.09,4.78"/>
    <g>
      <g>
        <path class="cls-4" d="m556.54,47.57c-.38-5.07-.78-9.1-1.05-11.67-.84-7.87-1.52-11.66.8-14.43,1.13-1.35,2.49-1.88,2.95-2.05,2.85-1.07,6.12-.15,8.11,1.78.43.42,1.18,1.25,2.26,4.24.99,2.73,1.85,6.13,2.58,14.05.13,1.48.3,3.53.44,6"/>
        <path class="cls-14" d="m557.39,47.42c.02-1.93-.02-4.88-.42-8.51-.22-1.94-.42-3.02-.73-5.16-.34-2.36-.78-5.81-1.14-10.12"/>
        <path class="cls-14" d="m558.03,47.44c.04-2.1.02-5.33-.31-9.28-.17-2.11-.34-3.29-.6-5.62-.28-2.58-.64-6.33-.92-11.03"/>
        <path class="cls-14" d="m571.78,45.58c-.02-1.01-.07-2.37-.17-3.97-.22-3.52-.56-6.25-.74-7.54-.21-1.5-.41-3.01-.83-5.02-.51-2.48-1.01-4.2-1.25-4.98-.14-.47-.27-.86-.36-1.13"/>
        <path class="cls-14" d="m569.7,46.26c-.02-1.01,0-4.61-.09-6.21-.22-3.52-.56-6.25-.74-7.54-.21-1.5-.41-3.01-.83-5.02-.51-2.48-1.01-4.2-1.25-4.98-.14-.47-.24-1.75-.33-2.03"/>
        <path class="cls-14" d="m570.81,45.56c0-.91-.04-2.21-.13-3.77-.19-3.4-.54-6-.82-8.04-.18-1.33-.46-3.19-.86-5.4-.73-4.01-.55-2.47-.82-4.1-.06-.38-.22-1.32-.68-2.47-.08-.2-.15-.36-.2-.46"/>
        <path class="cls-14" d="m568.63,46.22c0-.91.15-4.44.06-6-.19-3.4-.54-6-.82-8.04-.18-1.33-.46-3.19-.86-5.4-.73-4.01-.55-2.47-.82-4.1-.06-.38-.22-1.32-.68-2.47-.08-.2-.15-.36-.2-.46"/>
        <path class="cls-2" d="m559.14,47.13c.14-4,0-7.36-.2-9.85-.29-3.75-.77-6.72-1.22-9.54-.41-2.56-.82-4.69-1.13-6.22"/>
        <path class="cls-2" d="m560.41,46.86c.04-.71.09-1.71.1-2.92,0-2.29-.14-4.07-.4-6.58-.49-4.68-.73-7.03-1.23-9.76-.32-1.75-.79-4.03-1.51-6.69"/>
        <path class="cls-2" d="m561.95,46.66c.04-.71.1-2.65.11-3.86,0-2.29-.14-4.07-.4-6.58-.49-4.68-.73-7.03-1.23-9.76-.32-1.75-.79-4.03-1.51-6.69"/>
        <path class="cls-2" d="m561.32,46.64c.06-1.81.07-3.88-.02-6.16-.04-1.12-.15-3.4-.46-6.3-.38-3.53-.87-6.2-1.09-7.35-.42-2.16-.79-3.61-.97-4.3-.25-.94-.48-1.73-.66-2.31"/>
        <path class="cls-2" d="m562.84,46.44c.06-1.81.1-4.81.01-7.09-.04-1.12-.15-3.4-.46-6.3-.38-3.53-.87-6.2-1.09-7.35-.42-2.16-.79-3.61-.97-4.3-.25-.94-.48-1.73-.66-2.31"/>
        <path class="cls-14" d="m563.87,46.2c.03-.77.05-1.8.06-3.03.01-1.35.03-3.79-.14-6.86-.11-2.08-.28-4.99-.88-8.7-.39-2.4-.8-4.14-.97-4.84-.34-1.39-.68-2.58-.97-3.51"/>
        <path class="cls-14" d="m567.75,46.21c.04-1.3.07-3.01,0-5.03-.09-2.77-.29-4.81-.49-6.65-.05-.45-.7-6.58-1.5-10.02-.08-.32-.45-1.88-.86-4-.07-.33-.12-.6-.15-.76"/>
        <path class="cls-14" d="m565.76,45.71c.04-1.3.07-3.01,0-5.03-.09-2.77-.29-4.81-.49-6.65-.05-.45-.7-6.58-1.5-10.02-.08-.32-.45-1.88-.86-4-.07-.33-.12-.6-.15-.76"/>
        <path class="cls-14" d="m566.97,46.15c-.02-1.19-.07-2.84-.15-4.81-.12-2.83-.19-4.49-.4-6.66-.27-2.8-.62-4.87-1.06-7.45-.49-2.89-.92-4.9-1.14-5.88-.17-.78-.33-1.43-.44-1.91"/>
        <path class="cls-14" d="m564.99,45.66c-.02-1.19-.07-2.84-.15-4.81-.12-2.83-.19-4.49-.4-6.66-.27-2.8-.62-4.87-1.06-7.45-.49-2.89-.92-4.9-1.14-5.88-.17-.78-.33-1.43-.44-1.91"/>
        <path class="cls-11" d="m556.46,47.16c2.48-.41,5.2-.77,8.12-1,3-.24,5.81-.33,8.39-.32"/>
        <path class="cls-11" d="m556.4,48.97c2.48-.41,5.2-.77,8.12-1,3-.24,5.81-.33,8.39-.32"/>
        <path class="cls-11" d="m556.31,47.02c-.09.45-.2,1.08-.21,1.84-.01,1.08-.02,1.63.22,2.11.83,1.68,4.12,1.68,6.21,1.67.43,0,.78-.02,1.03-.03.22.17.76.66.97,1.5.1.38.09.72.07.96"/>
        <path class="cls-11" d="m573.17,45.63c.04.57.06,1.36.02,2.32-.06,1.35-.09,2.03-.28,2.62-.67,2.04-2.9,1.81-4.31,1.66-.29-.03-.53-.07-.69-.11-.16.2-.56.78-.75,1.81-.09.47-.11.9-.11,1.2"/>
      </g>
      <path class="cls-7" d="m555.35,34.65c.45.48,1.79-.1,2.56-.61.17-.12.99-.69,1.64-1.83.53-.92.31-1.11.78-2.04.22-.43.94-1.86,2.31-2.44.9-.38,1.08.03,2.47-.42.69-.22,1.28-.42,1.82-.98.42-.44.62-.92,1.03-1.88.33-.79.49-1.19.48-1.52-.05-.98-.93-1.67-1.72-2.28-1.09-.85-2.15-1.21-2.65-1.35-.62-.18-2.09-.59-3.91-.16-.66.15-2.29.56-3.63,2.06-1.22,1.37-1.53,2.9-1.68,3.65-.27,1.34-.18,2.54-.02,4.54.03.44.11,1.26.19,2.05.18,1.78.2,1.54.22,2.07.03.8-.03.97.13,1.14h-.02Z"/>
    </g>
    <g>
      <line class="cls-6" x1="584.46" y1="53.08" x2="587.21" y2="36.64"/>
      <line class="cls-6" x1="586.35" y1="52.35" x2="588.98" y2="36.62"/>
      <path class="cls-14" d="m587.21,36.63c.12.06.32.18.45.39.09.14.12.26.14.41.12.7-.03.95.12,1.37.09.25.23.4.29.46.14.14.28.23.38.27l.44-2.94-.05-4.09-1.78,4.13h.01Z"/>
      <path class="cls-13" d="m588.14,34.34c.31.16.61.33.92.49"/>
    </g>
  </g>
</svg>