<?xml version="1.0" encoding="UTF-8"?>
<svg id="Layer_2" data-name="Layer 2" xmlns="http://www.w3.org/2000/svg" viewBox="0 0 475.08 85.38">
  <defs>
    <style>
      .cls-1 {
        stroke-width: 1.5px;
      }

      .cls-1, .cls-2, .cls-3, .cls-4, .cls-5, .cls-6, .cls-7, .cls-8, .cls-9, .cls-10, .cls-11, .cls-12 {
        stroke-miterlimit: 10;
      }

      .cls-1, .cls-2, .cls-3, .cls-4, .cls-5, .cls-6, .cls-7, .cls-8, .cls-10, .cls-11, .cls-12 {
        fill: none;
      }

      .cls-1, .cls-10 {
        stroke: #f0b559;
      }

      .cls-13 {
        font-size: 70px;
      }

      .cls-13, .cls-14 {
        font-family: IowanOldStyle-Black, 'Iowan Old Style';
        font-weight: 800;
      }

      .cls-2 {
        stroke-width: .4px;
      }

      .cls-2, .cls-3, .cls-4, .cls-7, .cls-9, .cls-11, .cls-12 {
        stroke: #f7f5f4;
      }

      .cls-3 {
        stroke-width: .4px;
      }

      .cls-4, .cls-5, .cls-6 {
        stroke-width: .8px;
      }

      .cls-5 {
        stroke: #f7f6f3;
      }

      .cls-6 {
        stroke: #e5d4e8;
      }

      .cls-15 {
        fill: #f6f6f3;
      }

      .cls-7, .cls-8 {
        stroke-width: .1px;
      }

      .cls-8 {
        stroke: #add136;
      }

      .cls-9 {
        fill: #84786a;
        stroke-width: .5px;
      }

      .cls-16, .cls-17 {
        font-family: Courier, Courier;
      }

      .cls-12 {
        stroke-width: .6px;
      }

      .cls-18 {
        fill: #d8c6e1;
        font-size: 15px;
      }

      .cls-17 {
        fill: #f0b458;
        font-size: 10px;
      }
    </style>
  </defs>
  <g id="Layer_1-2" data-name="Layer 1">
    <text class="cls-18" transform="translate(0 12.73)"><tspan class="cls-14" x="0" y="0">MIN</tspan><tspan class="cls-16" x="35.87" y="0"> </tspan></text>
    <text class="cls-13" transform="translate(2.79 62.34)"><tspan class="cls-15" x="0" y="0">portfo</tspan><tspan class="cls-5" x="233.48" y="0">li</tspan><tspan class="cls-15" x="284.51" y="0">o</tspan></text>
    <text class="cls-17" transform="translate(224.29 77.44)"><tspan x="0" y="0">Januar 2024</tspan></text>
    <path class="cls-1" d="m401.14,67.37c-1.02-.13-2.59-.27-4.51-.54-3.5-.4-3.84-.54-5.3-.67-2.59-.2-2.48.07-6.99.07-4.17,0-6.26,0-6.99-.2-1.35-.34-2.71-.88-4.17-.2-.28.13-1.07.61-1.97,1.08-.9.54-1.24.74-1.8.88-.34.07-.79.07-1.69.07-.96,0-1.47,0-1.97-.13-.56-.13-1.02-.27-1.52-.67-.45-.4-.51-.67-.96-.88-.45-.27-.9-.27-1.13-.27-2.31-.07-3.61.27-3.61.27-.68.13-1.8.27-4.12.61-1.97.27-3.44.34-4.74.34-2.59.07-2.71-.07-6.32,0-2.88,0-3.21.13-5.02.07-1.97-.07-3.55-.27-4.57-.4"/>
    <path class="cls-10" d="m363.35,65.69c.06-.07.17-.2.34-.2s.34.13.39.2c.28.27.62.4.9.61.56.47,1.41.54,2.14.54,1.13.07,2.14.2,3.16-.4.51-.27.9-.67,1.64-.81.39-.07.73-.07.96-.07"/>
    <path class="cls-3" d="m367.69,66.09c0-.34.06-.74.23-1.21,0,0,.28-1.01.79-1.75.68-1.01,1.8-1.48,2.82-1.75,2.82-.74,5.19-.47,5.98-.4,2.03.27,3.21.61,5.36,1.21,3.1.81,1.75.34,8.18,1.96,2.59.61,5.58,1.42,8.91,2.29"/>
    <path class="cls-3" d="m367.69,66.09c0-.34.06-.74.23-1.21,0,0,.28-1.01.79-1.75.68-1.01,1.8-1.48,2.82-1.75,2.82-.74,5.19-.47,5.98-.4,2.03.27,3.21.61,5.36,1.21,3.1.81,1.75.34,8.18,1.96,2.59.61,5.58,1.42,8.91,2.29"/>
    <path class="cls-3" d="m367.98,65.48c-.06-.27-.11-.67-.23-1.15,0,0-.28-.94-.79-1.62-.68-.94-1.8-1.35-2.82-1.62-2.76-.67-5.13-.34-5.87-.2-1.97.27-3.16.67-5.3,1.28-2.99.81-1.69.4-7.95,2.02-2.54.67-5.47,1.42-8.69,2.36"/>
    <path class="cls-3" d="m367.98,65.48c-.06-.27-.11-.67-.23-1.15,0,0-.28-.94-.79-1.62-.68-.94-1.8-1.35-2.82-1.62-2.76-.67-5.13-.34-5.87-.2-1.97.27-3.16.67-5.3,1.28-2.99.81-1.69.4-7.95,2.02-2.54.67-5.47,1.42-8.69,2.36"/>
    <path class="cls-3" d="m367.81,66.09c.11-.27.28-.67.51-1.15.28-.67.45-1.01.62-1.28.39-.61.9-.94,1.41-1.21.17-.13.79-.4,2.43-.74.51-.07,1.24-.2,2.14-.27,1.41-.07,2.82.07,5.3.67,2.76.61,2.71.81,5.3,1.42,1.92.47,1.92.34,4.17.88,2.26.47,2.82.74,4.79,1.21,1.18.27,2.99.67,5.19,1.01"/>
    <path class="cls-3" d="m367.81,66.09c.11-.27.28-.67.51-1.15.28-.67.45-1.01.62-1.28.39-.61.9-.94,1.41-1.21.17-.13.79-.4,2.43-.74.51-.07,1.24-.2,2.14-.27,1.41-.07,2.82.07,5.3.67,2.76.61,2.71.81,5.3,1.42,1.92.47,1.92.34,4.17.88,2.26.47,2.82.74,4.79,1.21,1.18.27,2.99.67,5.19,1.01"/>
    <path class="cls-3" d="m367.81,65.55c-.11-.27-.28-.67-.51-1.08-.28-.67-.45-1.01-.62-1.21-.39-.61-.9-.88-1.41-1.15-.17-.07-.79-.4-2.37-.61-.51-.07-1.24-.2-2.09-.2-1.41-.07-2.76.13-5.19.74-2.71.67-2.65.81-5.19,1.48-1.86.47-1.86.34-4.12.88-2.2.54-2.76.74-4.68,1.21-1.18.27-2.93.67-5.08,1.08"/>
    <path class="cls-3" d="m367.81,65.55c-.11-.27-.28-.67-.51-1.08-.28-.67-.45-1.01-.62-1.21-.39-.61-.9-.88-1.41-1.15-.17-.07-.79-.4-2.37-.61-.51-.07-1.24-.2-2.09-.2-1.41-.07-2.76.13-5.19.74-2.71.67-2.65.81-5.19,1.48-1.86.47-1.86.34-4.12.88-2.2.54-2.76.74-4.68,1.21-1.18.27-2.93.67-5.08,1.08"/>
    <path class="cls-3" d="m368.09,66.16c.11-.13.23-.4.39-.67.39-.67.45-.88.62-1.21.34-.54.73-.88,1.02-1.08.34-.27.85-.54,2.14-.81.73-.13,1.69-.34,3.1-.4.56,0,1.47,0,2.54.2.9.13,1.3.27,2.93.74,1.92.54,2.82.81,3.84,1.08s1.07.2,3.61.67c.68.13,2.09.4,4.91.94,1.13.2,2.71.54,4.51.88"/>
    <path class="cls-3" d="m368.09,66.16c.11-.13.23-.4.39-.67.39-.67.45-.88.62-1.21.34-.54.73-.88,1.02-1.08.34-.27.85-.54,2.14-.81.73-.13,1.69-.34,3.1-.4.56,0,1.47,0,2.54.2.9.13,1.3.27,2.93.74,1.92.54,2.82.81,3.84,1.08s1.07.2,3.61.67c.68.13,2.09.4,4.91.94,1.13.2,2.71.54,4.51.88"/>
    <path class="cls-3" d="m367.58,65.55c-.11-.13-.23-.34-.39-.61-.39-.61-.45-.88-.68-1.15-.34-.54-.73-.81-1.02-1.01-.34-.27-.85-.47-2.14-.74-.68-.13-1.69-.34-3.05-.27-.56,0-1.41.07-2.48.27-.85.13-1.3.34-2.88.81-1.86.54-2.76.88-3.72,1.08-1.02.27-1.07.2-3.5.74-.68.13-2.03.4-4.79,1.01-1.13.27-2.65.61-4.4.94"/>
    <path class="cls-3" d="m367.58,65.55c-.11-.13-.23-.34-.39-.61-.39-.61-.45-.88-.68-1.15-.34-.54-.73-.81-1.02-1.01-.34-.27-.85-.47-2.14-.74-.68-.13-1.69-.34-3.05-.27-.56,0-1.41.07-2.48.27-.85.13-1.3.34-2.88.81-1.86.54-2.76.88-3.72,1.08-1.02.27-1.07.2-3.5.74-.68.13-2.03.4-4.79,1.01-1.13.27-2.65.61-4.4.94"/>
    <path class="cls-3" d="m368.6,66.16c.23-.27.51-.61.85-.94.28-.27.79-.74,1.47-1.21.06,0,.9-.61,1.97-.88,1.58-.47,3.21-.2,4.68.07,2.93.61,4.06,1.08,6.99,1.75,1.52.34,2.76.61,3.5.67"/>
    <path class="cls-3" d="m368.6,66.16c.23-.27.51-.61.85-.94.28-.27.79-.74,1.47-1.21.06,0,.9-.61,1.97-.88,1.58-.47,3.21-.2,4.68.07,2.93.61,4.06,1.08,6.99,1.75,1.52.34,2.76.61,3.5.67"/>
    <path class="cls-3" d="m367.07,65.62c-.23-.27-.51-.54-.85-.88-.28-.27-.79-.67-1.47-1.15-.06,0-.9-.54-1.97-.81-1.58-.4-3.16-.13-4.62.2-2.88.61-4.06.94-6.82,1.89-1.64.54-4.34,1.62-5.08,1.75"/>
    <path class="cls-3" d="m367.07,65.62c-.23-.27-.51-.54-.85-.88-.28-.27-.79-.67-1.47-1.15-.06,0-.9-.54-1.97-.81-1.58-.4-3.16-.13-4.62.2-2.88.61-4.06.94-6.82,1.89-1.64.54-4.34,1.62-5.08,1.75"/>
    <path class="cls-3" d="m369.16,66.22c.34-.34.79-.67,1.41-1.08.34-.2,1.3-.74,2.71-1.08,1.13-.2,1.97-.13,3.27,0,1.69.2,2.48.47,5.81,1.21.85.2,1.52.34,1.92.4"/>
    <path class="cls-3" d="m369.16,66.22c.34-.34.79-.67,1.41-1.08.34-.2,1.3-.74,2.71-1.08,1.13-.2,1.97-.13,3.27,0,1.69.2,2.48.47,5.81,1.21.85.2,1.52.34,1.92.4"/>
    <path class="cls-3" d="m366.57,65.69c-.34-.27-.79-.67-1.35-.94-.34-.2-1.3-.74-2.65-.94-1.13-.2-1.97-.07-3.21.07-1.69.2-2.43.54-5.7,1.28-.79.2-3.84,1.42-4.23,1.55"/>
    <path class="cls-3" d="m366.57,65.69c-.34-.27-.79-.67-1.35-.94-.34-.2-1.3-.74-2.65-.94-1.13-.2-1.97-.07-3.21.07-1.69.2-2.43.54-5.7,1.28-.79.2-3.84,1.42-4.23,1.55"/>
    <path class="cls-10" d="m369.67,66.56c-.17-.13-.45-.27-.79-.4-.73-.27-1.35-.2-1.75-.2-.34.07-.79.13-1.35.34"/>
    <path class="cls-11" d="m367.81,63.8c.06,0,.23-.47.56-1.08,0,0,.39-.61,1.02-1.15.85-.67,1.69-.88,2.37-1.01,2.65-.47,4.23-.4,4.23-.4,2.09.13,3.55.47,6.03,1.08,2.03.47,4.06,1.01,6.09,1.48,4.85,1.21,5.98,1.42,8.63,2.16.51.13,1.52-.2,1.47.4,0,0-3.38-.67-7.45-2.36-1.41-.61-1.07-.54-3.78-1.69-2.88-1.21-4.29-1.89-5.92-2.29-1.75-.54-2.09-.4-4.17-1.08-1.13-.34-1.52-.54-2.48-.67-1.86-.34-3.1,0-3.38.07,0,0-1.97.47-2.65,1.69-.11.27-.23.54-.23.54-.06.2-.06.4-.06.47,0,.47-.11.94-.11,1.48-.06,1.62-.28,2.36-.17,2.36h0Z"/>
    <path class="cls-11" d="m367.81,63.8c.06,0,.23-.47.56-1.08,0,0,.39-.61,1.02-1.15.85-.67,1.69-.88,2.37-1.01,2.65-.47,4.23-.4,4.23-.4,2.09.13,3.55.47,6.03,1.08,2.03.47,4.06,1.01,6.09,1.48,4.85,1.21,5.98,1.42,8.63,2.16.51.13,1.52-.2,1.47.4,0,0-3.38-.67-7.45-2.36-1.41-.61-1.07-.54-3.78-1.69-2.88-1.21-4.29-1.89-5.92-2.29-1.75-.54-2.09-.4-4.17-1.08-1.13-.34-1.52-.54-2.48-.67-1.86-.34-3.1,0-3.38.07,0,0-1.97.47-2.65,1.69-.11.27-.23.54-.23.54-.06.2-.06.4-.06.47,0,.47-.11.94-.11,1.48-.06,1.62-.28,2.36-.17,2.36h0Z"/>
    <path class="cls-11" d="m367.81,63.33c-.06,0-.23-.4-.62-1.01,0,0-.39-.54-1.02-1.08-.79-.61-1.69-.81-2.37-.88-2.59-.4-4.17-.27-4.17-.27-2.03.13-3.44.54-5.87,1.21-1.97.54-3.95,1.08-5.98,1.55-4.74,1.28-5.87,1.48-8.46,2.29-.45.13-1.52-.13-1.41.4,0,0,3.33-.74,7.28-2.36,1.41-.61,1.07-.54,3.72-1.69,2.82-1.21,4.17-1.89,5.75-2.36,1.75-.54,2.03-.4,4.12-1.08,1.07-.34,1.52-.54,2.43-.74,1.8-.34,3.05-.07,3.33-.07,0,0,1.92.4,2.59,1.55.11.2.23.47.23.47.06.2.06.4.06.4,0,.47.11.94.17,1.42.17,1.48.34,2.22.23,2.22h0Z"/>
    <path class="cls-11" d="m367.81,63.33c-.06,0-.23-.4-.62-1.01,0,0-.39-.54-1.02-1.08-.79-.61-1.69-.81-2.37-.88-2.59-.4-4.17-.27-4.17-.27-2.03.13-3.44.54-5.87,1.21-1.97.54-3.95,1.08-5.98,1.55-4.74,1.28-5.87,1.48-8.46,2.29-.45.13-1.52-.13-1.41.4,0,0,3.33-.74,7.28-2.36,1.41-.61,1.07-.54,3.72-1.69,2.82-1.21,4.17-1.89,5.75-2.36,1.75-.54,2.03-.4,4.12-1.08,1.07-.34,1.52-.54,2.43-.74,1.8-.34,3.05-.07,3.33-.07,0,0,1.92.4,2.59,1.55.11.2.23.47.23.47.06.2.06.4.06.4,0,.47.11.94.17,1.42.17,1.48.34,2.22.23,2.22h0Z"/>
    <g>
      <path class="cls-11" d="m408.54,65.38c.04.22.04.39.04.56.04.56.09.87.09.95,0,.26-.04.35.04.43.13.13.35.09.61.04.39-.04.78,0,1.17-.04.65-.04,1.21-.04,1.65-.04s.48.04,1.39.09c1.52.09.95,0,1.04,0,.13,0,.3.04.35-.04.09-.09,0-.17-.04-.48-.04-.35,0-.35-.04-.74-.04-.26-.09-.3-.04-.39.09-.17.26-.17.48-.26s.13-.09.82-.48c.48-.3.74-.43.95-.52.35-.17.52-.17.65-.35s.09-.35.04-.61c-.04-.39,0-.82,0-1.26-.04-.56,0-1.13-.04-1.69,0-.3,0-.13-.04-2.04,0-.48-.04-.95-.04-1.43.04-.48.09-.61-.04-.82-.04-.09-.22-.35-1.13-.65-.52-.17-.95-.26-1.26-.3-.78-.13-1.26-.17-1.78-.22-1.47-.17-1.34-.22-2.21-.3-1-.09-1.78-.04-2.12-.04-.65.04-1.17.09-1.91.17-1.3.17-1,.22-1.52.22-.52.04-.78,0-1.08.22-.22.17-.43.48-.39.78,0,.17.13.22.17.48.04.22.04.39,0,.56-.04.35,0,.69,0,1.04v5.5c-.04.17-.09.3,0,.39.09.13.22.13.39.13.3.04.56.17.87.26.65.17.95.26,1,.3.65.17.65.09.91.22.22.09.35.17.65.22.22.04.39,0,.52,0h1.39c.26,0,.65,0,1.13.04"/>
      <path class="cls-4" d="m417.38,56.28c-.09.09-.26.17-.43.3-.04.04-.74.48-1.6.74-1.47.52-3.73.69-4.55.74,0,0-1.21.09-3.03,0-.56-.04-1.21-.04-1.91-.35-.09-.04-.48-.35-1.26-.95-.04-.04-.13-.09-.09-.17,0-.09.22-.17.35-.17,1.73-.35.87-.35,1.78-.39,1.73-.09,3.03-.04,3.03-.04.74,0,.48.04,1.73.04.65.04,1.34.09,1.99.09.17,0,.74,0,1.39.26.48.17.52.3.52.39,0,.17-.3.3-.52.39-.26.13-.74.35-1.08.17-.22-.09-.22-.22-.43-.39-.3-.26-.69-.26-1.04-.3-.65-.04-1.26-.13-1.91-.13-1.3-.04-1.95-.04-2.17-.04-.35,0-.87-.04-1.6.04-.91.09-.95.26-.95.35-.04.17.35.39.43.48.35.22.82.35,2.43.3.35,0,.22,0,.61-.04,1.21-.04,1.6.04,2.51-.04.43-.04,1.26-.04,1.26-.17s-.82-.22-1.17-.26c-.56-.09-.78-.09-2.43-.17-.61-.04-1-.04-1.56,0-.35.04-.95.13-.91.17,0,.04.3.13,1.69.17"/>
      <path class="cls-6" d="m412.22,51.77c-.13.09-.35.17-.65.26-.74.22-1.34.09-1.78-.04-.52-.13-.74-.17-.87-.39-.22-.35.04-.82.22-1.13.26-.52.65-.87.91-1,.22-.13.95-.61,1.3-.35.22.13.22.43.22.52,0,0,0,.43-.3.65-.04.04-.22.17-.65.09-.22-.04-1.26-.17-1.52-1-.13-.39,0-.74.22-1.26s.78-1.56,1.95-2.04c.3-.13.82-.3,1.08-.09.17.17.22.52.09.74-.13.35-.52.43-.78.48-.39.09-.65.04-1-.04-1-.17-1.13-.04-2.34-.26-.61-.09-.74-.17-.82-.26-.39-.39-.3-1.04-.22-1.47.04-.35.17-1.08.78-1.73.43-.48.95-.65,1.82-.95.78-.26,1.26-.43,1.82-.22.09.04.65.26.82.78,0,.04.13.48-.09.69-.17.22-.48.17-1.08.09-.3-.04-.78-.13-1.39-.35-.3-.13-.52-.22-.82-.39-.74-.35-1.08-.52-1.34-.82-.3-.3-.39-.61-.52-1.08-.13-.39-.35-1.04-.22-1.86.13-.78.52-1.3.61-1.43.43-.56.91-.82,1.17-.95"/>
    </g>
    <g>
      <path class="cls-11" d="m449.08,36.31c5.38.09,10.52-.11,15.9-.16,1.85-.02,4.26,0,4.26,0,.84,0,.83-.02.91,0,.36.11.62.6.67.72.24.48.35,1.04.42,1.43.18.98.2,1.87.21,2.23.06,3.44.03,6.23.03,6.23,0,.46,0,1.68,0,4.12,0,5.33.07,7.06.07,11.28v6.07"/>
      <path class="cls-12" d="m448.76,37.91c5.02.08,9.81-.1,14.84-.15,1.72-.02,3.97,0,3.97,0,.78,0,.78-.02.85,0,.34.1.57.57.63.68.22.45.32.98.39,1.35.17.93.19,1.76.2,2.1.06,3.24.03,5.87.03,5.87,0,.43,0,1.58,0,3.88,0,5.02.07,6.66.07,10.63v5.73"/>
      <line class="cls-2" x1="445.54" y1="42.38" x2="462.65" y2="42.56"/>
      <path class="cls-2" d="m464.58,42.69c-.01.1-.02.24,0,.43v1.03c-.02.08-.05.24,0,.43.02.07.06.23.18.33.13.11.28.1.4.1.29,0,.57.03.86.03.41,0,.62,0,.92.03.13.01.31.03.55,0,.22-.03.36-.05.46-.17.08-.1.08-.22.09-.5.02-.4.05-.6.06-.73.01-.22.02-.32.02-.46,0-.24-.01-.27,0-.43.02-.2.05-.23.02-.29-.04-.08-.14-.09-.49-.12-.27-.02-.4-.03-.46-.03-.39,0-.59,0-.68.02-.03,0-.14.04-.25-.02-.06-.03-.08-.07-.08-.08-.02-.05,0-.09,0-.15,0-.02.02-.18-.03-.26-.04-.08-.15-.08-.29-.09-.63-.03-.57-.02-.64-.03-.28-.03-.41-.1-.52,0-.06.05-.09.13-.09.14-.03.09,0,.13,0,.35,0,.04,0,.11,0,.2,0,.12-.02.2-.03.26Z"/>
      <g>
        <path class="cls-7" d="m465.35,45.76s0,.12,0,.2c0,.47,0,.71,0,.71-.01,0-.11-.33.06-.5.03-.04.06-.04.12-.08.09-.06.2-.16.31-.34"/>
        <path class="cls-7" d="m465.81,46.65s-.02-.07-.04-.11c-.02-.05-.06-.12-.13-.18-.03-.02-.1-.08-.2-.11-.02,0-.03,0-.04,0"/>
        <path class="cls-7" d="m466.57,45.76c-.1,0-.17,0-.23,0-.08,0-.16.02-.24,0,0,0-.02,0-.04,0-.03.01-.03.06-.03.09,0,.07,0,.14,0,.21,0,0,.02.19-.01.51,0,.02,0,.04,0,.06,0,.02,0,.03,0,.04.01.02.05.01.06.01.06,0,.24,0,.5,0"/>
        <path class="cls-7" d="m466.56,46.22c-.06,0-.11,0-.15,0-.05,0-.08,0-.2,0-.05,0-.08,0-.11,0"/>
        <path class="cls-7" d="m466.73,46.67s.02-.1.04-.17c.03-.12.04-.15.07-.29.04-.16.07-.28.07-.28s.02-.11.06-.21c.01-.03.02-.03.02-.06,0-.02,0-.02.01-.03.02-.01.05,0,.06,0,.04.02.07.05.08.06.03.04.04.08.06.15.01.05.03.11.04.16.03.14.07.28.11.42.02.07.06.23.08.29"/>
        <path class="cls-7" d="m467.24,46.11s-.08,0-.11,0c-.08,0-.16,0-.23,0"/>
      </g>
      <path class="cls-7" d="m451.67,41.22s-.14-.03-.24.06c-.06.06-.11.16-.09.26.03.13.16.19.24.2.03,0,.06,0,.07,0"/>
      <path class="cls-7" d="m451.85,41.19s.02.11.02.19c.01.18,0,.37,0,.37,0,0-.03-.2.05-.26.04-.03.09-.02.13,0,.03.02.04.05.05.09.01.03.02.09.02.17"/>
      <path class="cls-7" d="m452.43,41.44s-.07-.02-.13,0c-.07.04-.09.14-.07.21,0,.01.02.09.08.1.05.01.1-.04.12-.07.03-.05.03-.11.03-.19,0-.02,0-.03,0-.06,0,0,0-.02,0-.02,0,0-.02.13.01.28,0,.04.02.08.03.1"/>
      <path class="cls-7" d="m452.66,41.15c0,.12,0,.21,0,.28,0,.08,0,.16,0,.24,0,.04,0,.09.02.11.03.03.07,0,.08,0,.05-.02.06-.07.06-.07"/>
      <path class="cls-7" d="m454.45,41.14c0,.12,0,.21,0,.28,0,.08,0,.16,0,.24,0,.04,0,.09.02.11.03.03.07,0,.08,0,.05-.02.06-.07.06-.07"/>
      <path class="cls-7" d="m452.54,41.28c.08,0,.16,0,.24.01"/>
      <path class="cls-7" d="m454.34,41.28c.08,0,.16,0,.24.01"/>
      <path class="cls-7" d="m453.73,41.17s-.04,0-.06,0c-.05.02-.07.07-.08.1,0,.01-.05.11,0,.18.02.02.05.05.08.04.03,0,.05-.04.06-.06.03-.06.04-.12.04-.2,0-.04,0-.07,0-.07,0,0,0,.16.01.36.01.14.03.2,0,.27,0,.01-.05.08-.11.08-.05,0-.09-.04-.12-.1"/>
      <path class="cls-7" d="m453.97,41.18c0,.07.02.17.02.28.02.25.01.42.01.42,0,0,.02-.62-.01-.7,0,0,0-.01,0-.02.01-.03.08-.01.09-.01.04,0,.09.02.13.07.03.05.03.11.01.16-.03.08-.12.1-.16.1-.04,0-.08,0-.1,0"/>
      <path class="cls-7" d="m446.97,45.73c.17-.25.46-.34.66-.24.26.13.3.54.22.78-.09.27-.32.27-.5.54-.11.17-.2.46-.11.96"/>
      <path class="cls-7" d="m450.94,48.89c-.2-.13-.54-.18-.79-.12-.31.07-.36.28-.26.4.11.14.38.14.59.28.13.09.24.24.13.5"/>
      <path class="cls-7" d="m450.02,45.96c.12-.09.32-.12.46-.08.18.05.21.19.15.27-.07.1-.23.09-.35.19-.08.06-.14.16-.08.34"/>
      <path class="cls-7" d="m447.28,47.98c-.06.03-.09.1-.08.16.01.08.08.15.16.13.08-.02.12-.1.11-.18-.02-.09-.11-.15-.19-.12Z"/>
      <path class="cls-7" d="m449.03,37.03c-.06.03-.09.1-.08.16.01.08.08.15.16.13.08-.02.12-.1.11-.18-.02-.09-.11-.15-.19-.12Z"/>
      <path class="cls-7" d="m450.57,50.27c.07.01.11.05.1.08-.01.04-.1.08-.2.07-.09,0-.15-.05-.13-.09.02-.05.14-.08.23-.06Z"/>
      <path class="cls-7" d="m450.18,46.77s-.06.06-.05.1c0,.05.05.09.1.08.05,0,.08-.06.07-.11,0-.06-.07-.09-.12-.07Z"/>
      <rect class="cls-7" x="445.54" y="64.15" width="15.17" height="1.84"/>
      <path class="cls-7" d="m446.33,64.46c0,.11,0,.21,0,.32,0,.27,0,.53-.02.77"/>
      <path class="cls-7" d="m446.66,64.45v1.08"/>
      <path class="cls-7" d="m446.26,64.98h.48"/>
      <path class="cls-7" d="m446.9,65.06c.04.34.08.41.11.41.03,0,.05-.05.11-.15.06-.1.09-.19.12-.25"/>
      <path class="cls-7" d="m447.59,65.06c-.07-.02-.16.05-.2.12-.06.1-.08.27,0,.35.07.06.18.05.24,0,.13-.11.06-.43-.05-.47Z"/>
      <path class="cls-7" d="m447.89,65.02c.04.4.05.5.04.5,0,0-.07-.26.04-.38,0,0,.08-.09.17-.06.03,0,.05.03.07.05"/>
      <path class="cls-7" d="m448.53,65.14s-.08-.06-.14-.03c-.07.03-.08.14-.09.21,0,.08-.02.19.05.24.05.04.13.03.18-.02.05-.05.04-.14.04-.19-.03-.35.07-.64.06-.64,0,0,0,.14-.04.51-.01.1-.03.25.06.37.01.02.02.03.03.04"/>
      <path class="cls-7" d="m449.06,65.09s-.05-.05-.1-.05c-.07,0-.11.09-.14.14-.05.1-.08.27,0,.39.01.02.05.08.11.08.08,0,.14-.13.14-.15.02-.05.02-.12.02-.27,0-.02,0-.06,0-.11,0-.04,0-.07,0-.07,0,0-.08.27.01.52.02.05.04.1.06.12"/>
      <path class="cls-7" d="m449.3,64.96c.02.07.03.14.05.22.05.27.04.49.04.49,0,0,.02-.38-.02-.49,0,0-.01-.04,0-.07.01-.03.04-.05.05-.05.06-.04.12-.01.13,0,.07.03.1.09.12.13.04.08.05.16.05.24,0,.07,0,.13.02.24,0,.02,0,.03,0,.04"/>
      <path class="cls-7" d="m450,64.76s-.04-.07-.04-.13c0-.09.05-.19.13-.23.1-.05.21.01.27.08.06.07.08.17.06.25-.02.08-.07.08-.15.22-.02.04-.06.1-.08.18-.03.09-.03.18-.03.23"/>
      <path class="cls-7" d="m450.17,65.47s-.04.04-.05.07c0,.04,0,.1.03.1.02,0,.05-.02.06-.05.02-.05-.02-.12-.04-.12Z"/>
      <g>
        <path class="cls-11" d="m449.08,36.31c-5.52-.42-11.12-.11-16.82-.16-1.95-.02-4.5,0-4.5,0-.88,0-.88-.02-.96,0-.38.11-.65.6-.71.72-.25.48-.36,1.04-.44,1.43-.19.98-.21,1.87-.22,2.23-.07,3.44-.03,6.23-.03,6.23,0,.46,0,1.68,0,4.12,0,5.33-.07,7.06-.08,11.28v6.07"/>
        <path class="cls-12" d="m448.76,37.91c-5.15-.4-10.38-.1-15.69-.15-1.82-.02-4.2,0-4.2,0-.82,0-.82-.02-.9,0-.36.1-.61.57-.66.68-.23.45-.34.98-.41,1.35-.18.93-.2,1.76-.21,2.1-.06,3.24-.03,5.87-.03,5.87,0,.43,0,1.58,0,3.88,0,5.02-.07,6.66-.07,10.63v5.73"/>
        <polygon class="cls-2" points="428.29 67.08 428.29 60.06 428.29 42.36 428.29 39.5 445.4 39.5 445.4 67 428.29 67.08"/>
        <polygon class="cls-2" points="441.57 68.23 441.57 67.02 445.4 67 445.54 43.5 445.54 40.64 462.65 40.64 462.65 68.23 441.57 68.23"/>
        <line class="cls-2" x1="428.22" y1="41.22" x2="445.47" y2="41.08"/>
        <polyline class="cls-7" points="435.01 39.76 435.11 40.13 435.42 40.96 435.61 40.44 435.82 39.76"/>
        <path class="cls-7" d="m436.69,40s-.11-.18-.3-.2c-.1-.01-.28,0-.35.14-.07.12,0,.3.09.38.14.12.32,0,.42.13.06.07.06.18.04.25-.04.13-.17.18-.21.2-.02,0-.26.1-.36-.03-.07-.08-.05-.19-.04-.22"/>
        <path class="cls-7" d="m437.3,39.87s-.09-.04-.15-.03c-.12.03-.18.18-.21.25-.08.2-.14.57.04.76.07.07.21.16.33.07.12-.08.12-.28.12-.29"/>
        <rect class="cls-7" x="429.66" y="49.67" width="11.91" height=".51"/>
        <rect class="cls-7" x="429.66" y="49.67" width="11.91" height=".51"/>
        <rect class="cls-8" x="429.66" y="49.67" width="11.91" height=".51"/>
        <rect class="cls-8" x="429.66" y="51.18" width="11.91" height=".51"/>
        <rect class="cls-8" x="429.66" y="52.68" width="11.91" height=".51"/>
        <rect class="cls-8" x="429.66" y="54.32" width="11.91" height=".51"/>
        <rect class="cls-7" x="430.17" y="53.5" width=".76" height=".51"/>
        <rect class="cls-7" x="430.17" y="50.42" width=".76" height=".51"/>
        <rect class="cls-7" x="430.17" y="51.93" width=".76" height=".51"/>
        <rect class="cls-7" x="430.17" y="48.94" width=".76" height=".51"/>
        <rect class="cls-7" x="429.66" y="47.71" width="2.29" height=".51"/>
        <rect class="cls-7" x="429.66" y="55.39" width="2.29" height=".51"/>
        <rect class="cls-7" x="429.66" y="45.2" width=".76" height=".51"/>
        <rect class="cls-7" x="429.66" y="61.88" width=".76" height=".51"/>
        <rect class="cls-7" x="429.66" y="61.08" width=".5" height=".51"/>
        <rect class="cls-7" x="437.42" y="61.08" width=".5" height=".51"/>
        <rect class="cls-8" x="429.66" y="44.24" width="11.65" height=".51"/>
        <rect class="cls-8" x="429.66" y="59.29" width="11.65" height=".51"/>
        <rect class="cls-8" x="429.66" y="43.46" width="10.69" height=".51"/>
        <rect class="cls-8" x="429.66" y="58.51" width="10.69" height=".51"/>
        <rect class="cls-8" x="429.66" y="60.13" width="6.8" height=".51"/>
        <rect class="cls-8" x="430.39" y="61.08" width="6.8" height=".51"/>
        <rect class="cls-7" x="429.66" y="42.56" width=".76" height=".51"/>
        <rect class="cls-7" x="429.66" y="57.71" width=".76" height=".51"/>
        <line class="cls-7" x1="429.02" y1="41.19" x2="429.06" y2="67.08"/>
        <path class="cls-11" d="m448.11,68.23h-25.19c-.05.18-.12.47-.15.86-.04.58.02,1.04.06,1.26h51.67c.04-.21.11-.68.06-1.26-.03-.39-.1-.68-.16-.86h-26.3"/>
        <path class="cls-12" d="m441.2,68.41c.14.14.28.25.38.32.13.09.21.15.33.2.21.09.4.1.5.1,1.77.07,2.6.04,2.6.04.51-.02,1.02,0,1.53,0,2.96,0,2.94,0,3.03,0,.67.03,1.35,0,2.03.02.04,0,.21,0,.43-.02.16-.02.33-.04.5-.12.15-.07.17-.12.38-.26.16-.11.3-.19.4-.24"/>
      </g>
    </g>
    <polygon class="cls-9" points="142.21 56.46 152.06 80.36 158.17 74.85 165.77 82.21 169.14 79.09 161.28 71.89 168.11 65.55 142.21 56.46"/>
  </g>
</svg>