<?xml version="1.0" encoding="UTF-8"?>
<svg id="Layer_2" data-name="Layer 2" xmlns="http://www.w3.org/2000/svg" viewBox="0 0 91.17 42.33">
  <defs>
    <style>
      .cls-1 {
        stroke-width: 0px;
      }

      .cls-1, .cls-2 {
        fill: none;
      }

      .cls-2 {
        stroke: #a7ff03;
        stroke-miterlimit: 10;
      }

      .cls-3 {
        fill: #f6f5f3;
        font-family: Courier, Courier;
        font-size: 10px;
      }
    </style>
  </defs>
  <g id="Layer_1-2" data-name="Layer 1">
    <rect class="cls-1" x="2.17" y="1.79" width="87.01" height="38.18" rx="9.72" ry="9.72"/>
    <text class="cls-3" transform="translate(15.08 22.18)"><tspan x="0" y="0">Min opgave</tspan></text>
    <path class="cls-2" d="m50.07,3.32c-.68-.25-1.63-.57-2.79-.89-2.89-.81-5.32-1.15-7.25-1.34-2.92-.29-4.93-.28-11.38-.22-10.56.1-10.11.13-10.38.11-5.44-.29-7.74-1.02-11.38.22-1.41.48-3.26,1.14-4.46,2.9-.94,1.37-1.05,2.77-1.12,6.47-.07,4.39.04,5.29,0,7.59-.08,4.66-.64,5.49-.78,11.27-.11,4.42.18,5.44.67,6.36,1.52,2.83,4.63,3.9,6.03,4.35,5.38,1.75,8.65-.28,16.74-1.34,6.87-.9,12.31-.45,13.62-.33,11.53,1.04,18.3,2.34,18.3,2.34.54.1,2.59.5,5.13,0,1.56-.31,4.9-.97,5.91-3.57.5-1.29.56-3.41-.89-4.69-1.5-1.32-3.98-1.17-5.25.11-1.56,1.59-.81,4.42.33,5.91,1.61,2.1,4.56,2.31,8.26,2.57,3.4.24,3.88-.37,7.37.11,2.1.29,2.67.62,4.35.56,1.15-.04,3.49-.12,5.47-1.56,2.05-1.49,2.71-3.7,3.24-5.58.69-2.46.39-3.48.33-9.6-.04-4-.05-6,.11-8.7.25-4.02.59-4.74.33-7.03-.26-2.35-.56-5.1-2.34-6.92-1.08-1.1-2.82-1.97-10.71-1.67-6.99.26-9.06,1.08-14.06,1.23-2.7.08-6.73-.02-11.72-1"/>
  </g>
</svg>